<svg width="999" height="461" viewBox="0 0 999 461" fill="none" xmlns="http://www.w3.org/2000/svg">
<g filter="url(#filter0_f_37_10)">
<path d="M38.0693 234.288C33.8376 234.288 30.2161 231.114 27.2051 224.767C24.2754 218.419 22.8105 210.647 22.8105 201.451V149.449C22.8105 148.229 24.5195 146.479 27.9375 144.2C31.4368 141.922 35.7907 139.521 40.999 136.998C46.2887 134.394 51.6598 131.912 57.1123 129.552C62.5648 127.192 67.3255 125.279 71.3945 123.814C75.5449 122.268 78.1491 121.495 79.207 121.495C81.2415 121.495 84.0898 124.832 87.752 131.505C88.1589 132.319 88.6471 133.295 89.2168 134.435C89.8678 135.574 90.6003 136.835 91.4141 138.219C92.2279 139.602 92.9196 140.904 93.4893 142.125C94.1403 143.346 94.71 144.404 95.1982 145.299C97.3955 149.286 100.162 151.28 103.499 151.28V156.285C102.197 156.855 100.651 157.587 98.8604 158.482C97.07 159.378 95.0355 160.395 92.7568 161.534C82.1774 167.312 76.5215 170.201 75.7891 170.201C73.2663 170.201 70.1331 165.278 66.3896 155.431C62.6462 145.665 59.5944 140.782 57.2344 140.782C54.2233 140.782 52.7178 143.264 52.7178 148.229V204.015C52.7178 210.688 54.2233 214.024 57.2344 214.024C57.9668 214.024 63.1344 211.827 72.7373 207.433C82.5029 203.119 88.3623 200.963 90.3154 200.963C94.3844 200.963 97.9245 204.177 100.936 210.606C103.947 216.954 105.452 225.174 105.452 235.265V288.487C105.452 289.789 103.54 291.58 99.7148 293.858C95.9714 296.056 91.2106 298.456 85.4326 301.061C79.736 303.665 73.9173 306.147 67.9766 308.507C62.0358 310.785 56.8275 312.657 52.3516 314.122C47.957 315.668 45.1901 316.441 44.0508 316.441C42.2604 316.441 40.5107 315.302 38.8018 313.023C37.0928 310.663 35.4245 307.774 33.7969 304.356C32.2507 300.857 30.7044 297.398 29.1582 293.98C27.612 290.481 26.0658 287.592 24.5195 285.313C22.9733 282.953 21.3864 281.773 19.7588 281.773V276.769C21.1423 276.199 22.6885 275.466 24.3975 274.571C26.1878 273.676 28.141 272.659 30.2568 271.52C40.9176 265.66 46.6549 262.73 47.4688 262.73C49.9915 262.73 53.5723 268.468 58.2109 279.942C62.6868 291.498 66.1048 297.276 68.4648 297.276C70.1738 297.276 71.7607 296.625 73.2256 295.323C74.7718 293.94 75.5449 292.068 75.5449 289.708V233.556C75.5449 225.987 73.4697 222.203 69.3193 222.203C67.8545 222.203 62.6055 224.197 53.5723 228.185C44.2949 232.254 39.1273 234.288 38.0693 234.288ZM142.073 288.487V156.041L149.764 148.473H134.017C123.925 148.473 118.188 151.24 116.805 156.773H111.312L97.0293 136.266C99.0638 133.092 101.668 130.284 104.842 127.843C107.934 125.32 110.986 124.059 113.997 124.059H180.037C190.128 124.059 195.866 121.292 197.249 115.758H202.742L217.024 136.266C214.99 139.439 212.386 142.288 209.212 144.811C206.119 147.252 203.068 148.473 200.057 148.473H171.98V275.548C171.98 281.651 172.632 286.046 173.934 288.731C175.317 291.417 178.084 292.76 182.234 292.76V300.45L131.087 322.057L127.059 314C130.721 314 134.22 311.843 137.557 307.53C140.568 303.461 142.073 297.114 142.073 288.487ZM215.315 288.487V158.971C215.315 148.798 211.897 143.061 205.062 141.759V136.266L230.33 121.983C233.667 123.367 237.003 125.808 240.34 129.308C243.676 132.807 245.345 135.94 245.345 138.707C263.737 127.558 274.235 121.983 276.839 121.983C278.141 121.983 279.931 122.96 282.21 124.913C284.57 126.785 286.971 129.226 289.412 132.237C291.854 135.248 293.888 138.422 295.516 141.759C297.225 145.014 298.079 148.025 298.079 150.792V220.982C298.079 222.366 289.005 226.638 270.857 233.8C278.589 259.679 287.581 277.094 297.835 286.046C302.555 289.871 307.275 291.783 311.995 291.783V299.229C296.533 309.076 286.727 314 282.576 314C280.379 314 277.815 312.006 274.886 308.019C271.956 303.95 268.986 298.823 265.975 292.638C262.964 286.371 260.156 279.861 257.552 273.106C254.948 266.271 252.75 260.045 250.96 254.43C249.251 248.814 248.274 244.664 248.03 241.979L245.345 242.711V275.548C245.345 281.651 245.996 286.046 247.298 288.731C248.6 291.417 251.367 292.76 255.599 292.76V300.45L204.329 322.057L200.301 314C203.963 314 207.462 311.843 210.799 307.53C213.81 303.461 215.315 297.114 215.315 288.487ZM255.11 146.031C252.181 146.031 248.925 147.252 245.345 149.693V230.992C248.274 230.992 251.489 230.341 254.988 229.039C258.488 227.737 261.499 226.109 264.021 224.156C266.544 222.203 267.806 220.25 267.806 218.297V164.464C267.806 152.175 263.574 146.031 255.11 146.031ZM357.649 145.787C356.022 145.787 354.516 146.601 353.133 148.229V214.269H388.411V220.25L375.838 226.476H353.133V251.5C353.133 269.973 354.964 280.797 358.626 283.971C364.078 288.691 370.06 291.376 376.57 292.027C383.081 292.678 390.079 293.004 397.566 293.004V300.206C396.834 300.206 390.69 302.485 379.134 307.042C367.578 311.681 360.579 314 358.138 314C355.534 314 352.278 312.901 348.372 310.704C344.466 308.507 340.56 305.618 336.653 302.037C332.828 298.375 329.614 294.306 327.01 289.83C324.406 285.273 323.104 280.675 323.104 276.036V144.444C323.104 143.956 324.975 142.898 328.719 141.271C332.544 139.562 337.304 137.608 343.001 135.411C348.779 133.214 354.638 131.057 360.579 128.941C366.52 126.744 371.728 124.954 376.204 123.57C380.68 122.187 383.488 121.495 384.627 121.495C385.359 121.495 386.173 122.838 387.068 125.523C388.045 128.209 389.021 131.505 389.998 135.411C390.975 139.236 391.91 142.857 392.806 146.275C394.515 153.111 396.305 158.157 398.177 161.412C400.13 164.667 403.792 166.295 409.163 166.295V171.3C405.42 172.846 399.194 175.776 390.486 180.089C381.616 184.402 376.896 186.559 376.326 186.559C373.885 186.559 370.752 179.763 366.927 166.173C363.021 152.582 359.928 145.787 357.649 145.787ZM458.724 145.787C457.096 145.787 455.59 146.601 454.207 148.229V214.269H489.485V220.25L476.912 226.476H454.207V251.5C454.207 269.973 456.038 280.797 459.7 283.971C465.153 288.691 471.134 291.376 477.645 292.027C484.155 292.678 491.154 293.004 498.641 293.004V300.206C497.908 300.206 491.764 302.485 480.208 307.042C468.652 311.681 461.653 314 459.212 314C456.608 314 453.353 312.901 449.446 310.704C445.54 308.507 441.634 305.618 437.728 302.037C433.903 298.375 430.688 294.306 428.084 289.83C425.48 285.273 424.178 280.675 424.178 276.036V144.444C424.178 143.956 426.049 142.898 429.793 141.271C433.618 139.562 438.379 137.608 444.075 135.411C449.853 133.214 455.713 131.057 461.653 128.941C467.594 126.744 472.802 124.954 477.278 123.57C481.754 122.187 484.562 121.495 485.701 121.495C486.434 121.495 487.247 122.838 488.143 125.523C489.119 128.209 490.096 131.505 491.072 135.411C492.049 139.236 492.985 142.857 493.88 146.275C495.589 153.111 497.379 158.157 499.251 161.412C501.204 164.667 504.866 166.295 510.237 166.295V171.3C506.494 172.846 500.268 175.776 491.561 180.089C482.69 184.402 477.97 186.559 477.4 186.559C474.959 186.559 471.826 179.763 468.001 166.173C464.095 152.582 461.002 145.787 458.724 145.787ZM543.44 288.487V156.041L551.131 148.473H535.384C525.293 148.473 519.555 151.24 518.172 156.773H512.679L498.396 136.266C500.431 133.092 503.035 130.284 506.209 127.843C509.301 125.32 512.353 124.059 515.364 124.059H581.404C591.495 124.059 597.233 121.292 598.616 115.758H604.109L618.392 136.266C616.357 139.439 613.753 142.288 610.579 144.811C607.487 147.252 604.435 148.473 601.424 148.473H573.348V275.548C573.348 281.651 573.999 286.046 575.301 288.731C576.684 291.417 579.451 292.76 583.602 292.76V300.45L532.454 322.057L528.426 314C532.088 314 535.587 311.843 538.924 307.53C541.935 303.461 543.44 297.114 543.44 288.487ZM651.229 145.787C649.601 145.787 648.095 146.601 646.712 148.229V216.222H679.427V222.203L666.976 228.551H646.712V275.548C646.712 281.651 647.363 286.046 648.665 288.731C649.967 291.417 652.734 292.76 656.966 292.76V300.45L605.696 322.057L601.668 314C605.33 314 608.829 311.843 612.166 307.53C615.177 303.461 616.683 297.114 616.683 288.487V144.444C616.683 143.956 618.554 142.898 622.298 141.271C626.123 139.562 630.883 137.608 636.58 135.411C642.358 133.214 648.217 131.057 654.158 128.941C660.099 126.744 665.307 124.954 669.783 123.57C674.259 122.187 677.067 121.495 678.206 121.495C678.938 121.495 679.752 122.838 680.647 125.523C681.624 128.209 682.601 131.505 683.577 135.411C684.554 139.236 685.49 142.857 686.385 146.275C688.094 153.111 689.884 158.157 691.756 161.412C693.709 164.667 697.33 166.295 702.62 166.295V171.3C700.83 172.114 698.348 173.253 695.174 174.718C692.081 176.183 688.379 177.973 684.065 180.089C675.195 184.402 670.475 186.559 669.905 186.559C667.382 186.559 664.209 179.763 660.384 166.173C656.559 152.582 653.507 145.787 651.229 145.787ZM756.697 287.999V167.76C756.697 161.575 756.046 157.18 754.744 154.576C753.442 151.891 750.675 150.548 746.443 150.548V142.735L797.713 121.251L801.741 129.308C798.079 129.308 794.58 131.464 791.243 135.777C788.232 139.846 786.727 146.153 786.727 154.698V272.984C786.727 278.518 787.907 283.279 790.267 287.267C792.627 291.254 795.556 293.248 799.056 293.248V298.741C797.835 298.823 788.72 303.909 771.712 314C771.142 313.837 770.491 313.674 769.759 313.512C769.108 313.268 768.375 312.983 767.562 312.657C765.853 312.088 763.615 310.46 760.848 307.774C758.081 305.089 756.697 301.996 756.697 298.497C755.721 298.985 752.913 300.572 748.274 303.258C735.905 310.257 728.58 313.756 726.302 313.756C722.721 313.756 719.222 312.128 715.804 308.873C712.467 305.536 709.7 301.549 707.503 296.91C705.306 292.271 704.207 287.958 704.207 283.971V158.238C704.207 148.961 700.138 143.549 692 142.003V136.51L719.222 121.251C722.884 122.716 726.302 125.157 729.476 128.575C732.649 131.993 734.236 135.208 734.236 138.219V260.777C734.236 271.275 735.783 278.437 738.875 282.262C741.967 286.087 747.908 287.999 756.697 287.999ZM811.751 288.487V158.971C811.751 148.798 808.333 143.061 801.497 141.759V136.266L826.766 121.983C830.102 123.367 833.439 125.808 836.775 129.308C840.112 132.807 841.78 135.94 841.78 138.707C860.172 127.558 870.67 121.983 873.274 121.983C874.576 121.983 876.367 122.96 878.646 124.913C881.006 126.785 883.406 129.226 885.848 132.237C888.289 135.248 890.324 138.422 891.951 141.759C893.66 145.014 894.515 148.025 894.515 150.792V220.982C894.515 222.366 885.441 226.638 867.293 233.8C875.024 259.679 884.017 277.094 894.271 286.046C898.991 289.871 903.711 291.783 908.431 291.783V299.229C892.968 309.076 883.162 314 879.012 314C876.814 314 874.251 312.006 871.321 308.019C868.392 303.95 865.421 298.823 862.41 292.638C859.399 286.371 856.591 279.861 853.987 273.106C851.383 266.271 849.186 260.045 847.396 254.43C845.687 248.814 844.71 244.664 844.466 241.979L841.78 242.711V275.548C841.78 281.651 842.431 286.046 843.733 288.731C845.035 291.417 847.802 292.76 852.034 292.76V300.45L800.765 322.057L796.736 314C800.398 314 803.898 311.843 807.234 307.53C810.245 303.461 811.751 297.114 811.751 288.487ZM851.546 146.031C848.616 146.031 845.361 147.252 841.78 149.693V230.992C844.71 230.992 847.924 230.341 851.424 229.039C854.923 227.737 857.934 226.109 860.457 224.156C862.98 222.203 864.241 220.25 864.241 218.297V164.464C864.241 152.175 860.009 146.031 851.546 146.031ZM890.12 142.003V136.754L916.121 121.495H925.887L954.573 211.705L958.602 209.996V157.75C958.602 152.949 957.747 149.164 956.038 146.397C954.41 143.631 952.783 142.003 951.155 141.515L948.348 141.026V135.533L972.396 121.251C973.291 121.251 974.918 122.146 977.278 123.937C979.72 125.727 981.998 127.883 984.114 130.406C986.312 132.848 987.41 135.208 987.41 137.486V209.02C987.41 211.786 978.051 216.547 959.334 223.302V270.299C959.334 275.751 959.944 279.535 961.165 281.651C962.467 283.686 965.193 284.703 969.344 284.703V291.783L918.318 314L914.412 305.943C921.574 304.397 925.968 300.41 927.596 293.98C928.816 289.423 929.427 284.011 929.427 277.745V225.011L904.402 150.06C903.1 146.235 901.269 143.956 898.909 143.224C896.468 142.41 893.538 142.003 890.12 142.003Z" fill="black" fill-opacity="0.5"/>
</g>
<path d="M28.0693 225.288C23.8376 225.288 20.2161 222.114 17.2051 215.767C14.2754 209.419 12.8105 201.647 12.8105 192.451V140.449C12.8105 139.229 14.5195 137.479 17.9375 135.2C21.4368 132.922 25.7907 130.521 30.999 127.998C36.2887 125.394 41.6598 122.912 47.1123 120.552C52.5648 118.192 57.3255 116.279 61.3945 114.814C65.5449 113.268 68.1491 112.495 69.207 112.495C71.2415 112.495 74.0898 115.832 77.752 122.505C78.1589 123.319 78.6471 124.295 79.2168 125.435C79.8678 126.574 80.6003 127.835 81.4141 129.219C82.2279 130.602 82.9196 131.904 83.4893 133.125C84.1403 134.346 84.71 135.404 85.1982 136.299C87.3955 140.286 90.1624 142.28 93.499 142.28V147.285C92.1969 147.855 90.6507 148.587 88.8604 149.482C87.07 150.378 85.0355 151.395 82.7568 152.534C72.1774 158.312 66.5215 161.201 65.7891 161.201C63.2663 161.201 60.1331 156.278 56.3896 146.431C52.6462 136.665 49.5944 131.782 47.2344 131.782C44.2233 131.782 42.7178 134.264 42.7178 139.229V195.015C42.7178 201.688 44.2233 205.024 47.2344 205.024C47.9668 205.024 53.1344 202.827 62.7373 198.433C72.5029 194.119 78.3623 191.963 80.3154 191.963C84.3844 191.963 87.9245 195.177 90.9355 201.606C93.9466 207.954 95.4521 216.174 95.4521 226.265V279.487C95.4521 280.789 93.5397 282.58 89.7148 284.858C85.9714 287.056 81.2106 289.456 75.4326 292.061C69.736 294.665 63.9173 297.147 57.9766 299.507C52.0358 301.785 46.8275 303.657 42.3516 305.122C37.957 306.668 35.1901 307.441 34.0508 307.441C32.2604 307.441 30.5107 306.302 28.8018 304.023C27.0928 301.663 25.4245 298.774 23.7969 295.356C22.2507 291.857 20.7044 288.398 19.1582 284.98C17.612 281.481 16.0658 278.592 14.5195 276.313C12.9733 273.953 11.3864 272.773 9.75879 272.773V267.769C11.1423 267.199 12.6885 266.466 14.3975 265.571C16.1878 264.676 18.141 263.659 20.2568 262.52C30.9176 256.66 36.6549 253.73 37.4688 253.73C39.9915 253.73 43.5723 259.468 48.2109 270.942C52.6868 282.498 56.1048 288.276 58.4648 288.276C60.1738 288.276 61.7607 287.625 63.2256 286.323C64.7718 284.94 65.5449 283.068 65.5449 280.708V224.556C65.5449 216.987 63.4697 213.203 59.3193 213.203C57.8545 213.203 52.6055 215.197 43.5723 219.185C34.2949 223.254 29.1273 225.288 28.0693 225.288ZM132.073 279.487V147.041L139.764 139.473H124.017C113.925 139.473 108.188 142.24 106.805 147.773H101.312L87.0293 127.266C89.0638 124.092 91.668 121.284 94.8418 118.843C97.9342 116.32 100.986 115.059 103.997 115.059H170.037C180.128 115.059 185.866 112.292 187.249 106.758H192.742L207.024 127.266C204.99 130.439 202.386 133.288 199.212 135.811C196.119 138.252 193.068 139.473 190.057 139.473H161.98V266.548C161.98 272.651 162.632 277.046 163.934 279.731C165.317 282.417 168.084 283.76 172.234 283.76V291.45L121.087 313.057L117.059 305C120.721 305 124.22 302.843 127.557 298.53C130.568 294.461 132.073 288.114 132.073 279.487ZM205.315 279.487V149.971C205.315 139.798 201.897 134.061 195.062 132.759V127.266L220.33 112.983C223.667 114.367 227.003 116.808 230.34 120.308C233.676 123.807 235.345 126.94 235.345 129.707C253.737 118.558 264.235 112.983 266.839 112.983C268.141 112.983 269.931 113.96 272.21 115.913C274.57 117.785 276.971 120.226 279.412 123.237C281.854 126.248 283.888 129.422 285.516 132.759C287.225 136.014 288.079 139.025 288.079 141.792V211.982C288.079 213.366 279.005 217.638 260.857 224.8C268.589 250.679 277.581 268.094 287.835 277.046C292.555 280.871 297.275 282.783 301.995 282.783V290.229C286.533 300.076 276.727 305 272.576 305C270.379 305 267.815 303.006 264.886 299.019C261.956 294.95 258.986 289.823 255.975 283.638C252.964 277.371 250.156 270.861 247.552 264.106C244.948 257.271 242.75 251.045 240.96 245.43C239.251 239.814 238.274 235.664 238.03 232.979L235.345 233.711V266.548C235.345 272.651 235.996 277.046 237.298 279.731C238.6 282.417 241.367 283.76 245.599 283.76V291.45L194.329 313.057L190.301 305C193.963 305 197.462 302.843 200.799 298.53C203.81 294.461 205.315 288.114 205.315 279.487ZM245.11 137.031C242.181 137.031 238.925 138.252 235.345 140.693V221.992C238.274 221.992 241.489 221.341 244.988 220.039C248.488 218.737 251.499 217.109 254.021 215.156C256.544 213.203 257.806 211.25 257.806 209.297V155.464C257.806 143.175 253.574 137.031 245.11 137.031ZM347.649 136.787C346.022 136.787 344.516 137.601 343.133 139.229V205.269H378.411V211.25L365.838 217.476H343.133V242.5C343.133 260.973 344.964 271.797 348.626 274.971C354.078 279.691 360.06 282.376 366.57 283.027C373.081 283.678 380.079 284.004 387.566 284.004V291.206C386.834 291.206 380.69 293.485 369.134 298.042C357.578 302.681 350.579 305 348.138 305C345.534 305 342.278 303.901 338.372 301.704C334.466 299.507 330.56 296.618 326.653 293.037C322.828 289.375 319.614 285.306 317.01 280.83C314.406 276.273 313.104 271.675 313.104 267.036V135.444C313.104 134.956 314.975 133.898 318.719 132.271C322.544 130.562 327.304 128.608 333.001 126.411C338.779 124.214 344.638 122.057 350.579 119.941C356.52 117.744 361.728 115.954 366.204 114.57C370.68 113.187 373.488 112.495 374.627 112.495C375.359 112.495 376.173 113.838 377.068 116.523C378.045 119.209 379.021 122.505 379.998 126.411C380.975 130.236 381.91 133.857 382.806 137.275C384.515 144.111 386.305 149.157 388.177 152.412C390.13 155.667 393.792 157.295 399.163 157.295V162.3C395.42 163.846 389.194 166.776 380.486 171.089C371.616 175.402 366.896 177.559 366.326 177.559C363.885 177.559 360.752 170.763 356.927 157.173C353.021 143.582 349.928 136.787 347.649 136.787ZM448.724 136.787C447.096 136.787 445.59 137.601 444.207 139.229V205.269H479.485V211.25L466.912 217.476H444.207V242.5C444.207 260.973 446.038 271.797 449.7 274.971C455.153 279.691 461.134 282.376 467.645 283.027C474.155 283.678 481.154 284.004 488.641 284.004V291.206C487.908 291.206 481.764 293.485 470.208 298.042C458.652 302.681 451.653 305 449.212 305C446.608 305 443.353 303.901 439.446 301.704C435.54 299.507 431.634 296.618 427.728 293.037C423.903 289.375 420.688 285.306 418.084 280.83C415.48 276.273 414.178 271.675 414.178 267.036V135.444C414.178 134.956 416.049 133.898 419.793 132.271C423.618 130.562 428.379 128.608 434.075 126.411C439.853 124.214 445.713 122.057 451.653 119.941C457.594 117.744 462.802 115.954 467.278 114.57C471.754 113.187 474.562 112.495 475.701 112.495C476.434 112.495 477.247 113.838 478.143 116.523C479.119 119.209 480.096 122.505 481.072 126.411C482.049 130.236 482.985 133.857 483.88 137.275C485.589 144.111 487.379 149.157 489.251 152.412C491.204 155.667 494.866 157.295 500.237 157.295V162.3C496.494 163.846 490.268 166.776 481.561 171.089C472.69 175.402 467.97 177.559 467.4 177.559C464.959 177.559 461.826 170.763 458.001 157.173C454.095 143.582 451.002 136.787 448.724 136.787ZM533.44 279.487V147.041L541.131 139.473H525.384C515.293 139.473 509.555 142.24 508.172 147.773H502.679L488.396 127.266C490.431 124.092 493.035 121.284 496.209 118.843C499.301 116.32 502.353 115.059 505.364 115.059H571.404C581.495 115.059 587.233 112.292 588.616 106.758H594.109L608.392 127.266C606.357 130.439 603.753 133.288 600.579 135.811C597.487 138.252 594.435 139.473 591.424 139.473H563.348V266.548C563.348 272.651 563.999 277.046 565.301 279.731C566.684 282.417 569.451 283.76 573.602 283.76V291.45L522.454 313.057L518.426 305C522.088 305 525.587 302.843 528.924 298.53C531.935 294.461 533.44 288.114 533.44 279.487ZM641.229 136.787C639.601 136.787 638.095 137.601 636.712 139.229V207.222H669.427V213.203L656.976 219.551H636.712V266.548C636.712 272.651 637.363 277.046 638.665 279.731C639.967 282.417 642.734 283.76 646.966 283.76V291.45L595.696 313.057L591.668 305C595.33 305 598.829 302.843 602.166 298.53C605.177 294.461 606.683 288.114 606.683 279.487V135.444C606.683 134.956 608.554 133.898 612.298 132.271C616.123 130.562 620.883 128.608 626.58 126.411C632.358 124.214 638.217 122.057 644.158 119.941C650.099 117.744 655.307 115.954 659.783 114.57C664.259 113.187 667.067 112.495 668.206 112.495C668.938 112.495 669.752 113.838 670.647 116.523C671.624 119.209 672.601 122.505 673.577 126.411C674.554 130.236 675.49 133.857 676.385 137.275C678.094 144.111 679.884 149.157 681.756 152.412C683.709 155.667 687.33 157.295 692.62 157.295V162.3C690.83 163.114 688.348 164.253 685.174 165.718C682.081 167.183 678.379 168.973 674.065 171.089C665.195 175.402 660.475 177.559 659.905 177.559C657.382 177.559 654.209 170.763 650.384 157.173C646.559 143.582 643.507 136.787 641.229 136.787ZM746.697 278.999V158.76C746.697 152.575 746.046 148.18 744.744 145.576C743.442 142.891 740.675 141.548 736.443 141.548V133.735L787.713 112.251L791.741 120.308C788.079 120.308 784.58 122.464 781.243 126.777C778.232 130.846 776.727 137.153 776.727 145.698V263.984C776.727 269.518 777.907 274.279 780.267 278.267C782.627 282.254 785.556 284.248 789.056 284.248V289.741C787.835 289.823 778.72 294.909 761.712 305C761.142 304.837 760.491 304.674 759.759 304.512C759.108 304.268 758.375 303.983 757.562 303.657C755.853 303.088 753.615 301.46 750.848 298.774C748.081 296.089 746.697 292.996 746.697 289.497C745.721 289.985 742.913 291.572 738.274 294.258C725.905 301.257 718.58 304.756 716.302 304.756C712.721 304.756 709.222 303.128 705.804 299.873C702.467 296.536 699.7 292.549 697.503 287.91C695.306 283.271 694.207 278.958 694.207 274.971V149.238C694.207 139.961 690.138 134.549 682 133.003V127.51L709.222 112.251C712.884 113.716 716.302 116.157 719.476 119.575C722.649 122.993 724.236 126.208 724.236 129.219V251.777C724.236 262.275 725.783 269.437 728.875 273.262C731.967 277.087 737.908 278.999 746.697 278.999ZM801.751 279.487V149.971C801.751 139.798 798.333 134.061 791.497 132.759V127.266L816.766 112.983C820.102 114.367 823.439 116.808 826.775 120.308C830.112 123.807 831.78 126.94 831.78 129.707C850.172 118.558 860.67 112.983 863.274 112.983C864.576 112.983 866.367 113.96 868.646 115.913C871.006 117.785 873.406 120.226 875.848 123.237C878.289 126.248 880.324 129.422 881.951 132.759C883.66 136.014 884.515 139.025 884.515 141.792V211.982C884.515 213.366 875.441 217.638 857.293 224.8C865.024 250.679 874.017 268.094 884.271 277.046C888.991 280.871 893.711 282.783 898.431 282.783V290.229C882.968 300.076 873.162 305 869.012 305C866.814 305 864.251 303.006 861.321 299.019C858.392 294.95 855.421 289.823 852.41 283.638C849.399 277.371 846.591 270.861 843.987 264.106C841.383 257.271 839.186 251.045 837.396 245.43C835.687 239.814 834.71 235.664 834.466 232.979L831.78 233.711V266.548C831.78 272.651 832.431 277.046 833.733 279.731C835.035 282.417 837.802 283.76 842.034 283.76V291.45L790.765 313.057L786.736 305C790.398 305 793.898 302.843 797.234 298.53C800.245 294.461 801.751 288.114 801.751 279.487ZM841.546 137.031C838.616 137.031 835.361 138.252 831.78 140.693V221.992C834.71 221.992 837.924 221.341 841.424 220.039C844.923 218.737 847.934 217.109 850.457 215.156C852.98 213.203 854.241 211.25 854.241 209.297V155.464C854.241 143.175 850.009 137.031 841.546 137.031ZM880.12 133.003V127.754L906.121 112.495H915.887L944.573 202.705L948.602 200.996V148.75C948.602 143.949 947.747 140.164 946.038 137.397C944.41 134.631 942.783 133.003 941.155 132.515L938.348 132.026V126.533L962.396 112.251C963.291 112.251 964.918 113.146 967.278 114.937C969.72 116.727 971.998 118.883 974.114 121.406C976.312 123.848 977.41 126.208 977.41 128.486V200.02C977.41 202.786 968.051 207.547 949.334 214.302V261.299C949.334 266.751 949.944 270.535 951.165 272.651C952.467 274.686 955.193 275.703 959.344 275.703V282.783L908.318 305L904.412 296.943C911.574 295.397 915.968 291.41 917.596 284.98C918.816 280.423 919.427 275.011 919.427 268.745V216.011L894.402 141.06C893.1 137.235 891.269 134.956 888.909 134.224C886.468 133.41 883.538 133.003 880.12 133.003Z" fill="#F47427"/>
<path d="M761.56 368.96C761.56 366.96 761.88 365.253 762.52 363.84C763.16 362.4 764.307 360.813 765.96 359.08C767.587 357.347 768.707 355.867 769.32 354.64C769.96 353.413 770.28 352.133 770.28 350.8C770.28 349.6 770.08 348.773 769.68 348.32C769.307 347.84 768.747 347.6 768 347.6C766.48 347.6 765.72 348.52 765.72 350.36V353.36H761.56V350.64C761.56 348.373 762.12 346.64 763.24 345.44C764.36 344.213 765.987 343.6 768.12 343.6C770.253 343.6 771.88 344.213 773 345.44C774.12 346.64 774.68 348.373 774.68 350.64C774.68 352.347 774.267 354.013 773.44 355.64C772.64 357.267 771.24 359.133 769.24 361.24C767.933 362.627 767.053 363.76 766.6 364.64C766.147 365.493 765.92 366.413 765.92 367.4V368H774.28V372H761.56V368.96ZM784.016 372.4C781.802 372.4 780.096 371.813 778.896 370.64C777.722 369.44 777.136 367.72 777.136 365.48V363C777.136 361.613 777.362 360.453 777.816 359.52C778.269 358.56 779.002 357.813 780.016 357.28V357.2C779.082 356.693 778.389 356 777.936 355.12C777.509 354.213 777.296 353.067 777.296 351.68V350.52C777.296 348.28 777.869 346.573 779.016 345.4C780.189 344.2 781.856 343.6 784.016 343.6C786.176 343.6 787.829 344.2 788.976 345.4C790.149 346.573 790.736 348.28 790.736 350.52V351.68C790.736 354.347 789.829 356.187 788.016 357.2V357.28C789.029 357.813 789.762 358.56 790.216 359.52C790.669 360.453 790.896 361.613 790.896 363V365.48C790.896 367.72 790.296 369.44 789.096 370.64C787.922 371.813 786.229 372.4 784.016 372.4ZM784.016 355.4C785.562 355.4 786.336 354.467 786.336 352.6V350.4C786.336 348.533 785.562 347.6 784.016 347.6C782.469 347.6 781.696 348.533 781.696 350.4V352.6C781.696 354.467 782.469 355.4 784.016 355.4ZM784.016 368.4C785.669 368.4 786.496 367.347 786.496 365.24V362.56C786.496 360.453 785.669 359.4 784.016 359.4C782.362 359.4 781.536 360.453 781.536 362.56V365.24C781.536 367.347 782.362 368.4 784.016 368.4ZM800.078 344H806.358L809.158 364.04H809.238L812.038 344H818.318V372H814.158V350.8H814.078L810.878 372H807.198L803.998 350.8H803.918V372H800.078V344ZM825.001 344H830.961L835.521 372H831.121L830.321 366.44V366.52H825.321L824.521 372H820.441L825.001 344ZM829.801 362.72L827.841 348.88H827.761L825.841 362.72H829.801ZM837.656 344H844.176C846.442 344 848.096 344.533 849.136 345.6C850.176 346.64 850.696 348.253 850.696 350.44V352.16C850.696 355.067 849.736 356.907 847.816 357.68V357.76C848.882 358.08 849.629 358.733 850.056 359.72C850.509 360.707 850.736 362.027 850.736 363.68V368.6C850.736 369.4 850.762 370.053 850.816 370.56C850.869 371.04 851.002 371.52 851.216 372H846.736C846.576 371.547 846.469 371.12 846.416 370.72C846.362 370.32 846.336 369.6 846.336 368.56V363.44C846.336 362.16 846.122 361.267 845.696 360.76C845.296 360.253 844.589 360 843.576 360H842.056V372H837.656V344ZM843.656 356C844.536 356 845.189 355.773 845.616 355.32C846.069 354.867 846.296 354.107 846.296 353.04V350.88C846.296 349.867 846.109 349.133 845.736 348.68C845.389 348.227 844.829 348 844.056 348H842.056V356H843.656ZM859.988 372.4C857.882 372.4 856.268 371.8 855.148 370.6C854.055 369.4 853.508 367.707 853.508 365.52V350.48C853.508 348.293 854.055 346.6 855.148 345.4C856.268 344.2 857.882 343.6 859.988 343.6C862.095 343.6 863.695 344.2 864.788 345.4C865.908 346.6 866.468 348.293 866.468 350.48V353.44H862.308V350.2C862.308 348.467 861.575 347.6 860.108 347.6C858.642 347.6 857.908 348.467 857.908 350.2V365.84C857.908 367.547 858.642 368.4 860.108 368.4C861.575 368.4 862.308 367.547 862.308 365.84V361.56H866.468V365.52C866.468 367.707 865.908 369.4 864.788 370.6C863.695 371.8 862.095 372.4 859.988 372.4ZM869.101 344H873.501V355.4H878.221V344H882.621V372H878.221V359.4H873.501V372H869.101V344ZM887.338 372H885.898V367.76H890.138V371.56L887.938 376.8H885.898L887.338 372ZM899.763 368.96C899.763 366.96 900.083 365.253 900.723 363.84C901.363 362.4 902.51 360.813 904.163 359.08C905.79 357.347 906.91 355.867 907.523 354.64C908.163 353.413 908.483 352.133 908.483 350.8C908.483 349.6 908.283 348.773 907.883 348.32C907.51 347.84 906.95 347.6 906.203 347.6C904.683 347.6 903.923 348.52 903.923 350.36V353.36H899.763V350.64C899.763 348.373 900.323 346.64 901.443 345.44C902.563 344.213 904.19 343.6 906.323 343.6C908.456 343.6 910.083 344.213 911.203 345.44C912.323 346.64 912.883 348.373 912.883 350.64C912.883 352.347 912.47 354.013 911.643 355.64C910.843 357.267 909.443 359.133 907.443 361.24C906.136 362.627 905.256 363.76 904.803 364.64C904.35 365.493 904.123 366.413 904.123 367.4V368H912.483V372H899.763V368.96ZM922.219 372.4C920.059 372.4 918.405 371.787 917.259 370.56C916.112 369.333 915.539 367.6 915.539 365.36V350.64C915.539 348.4 916.112 346.667 917.259 345.44C918.405 344.213 920.059 343.6 922.219 343.6C924.379 343.6 926.032 344.213 927.179 345.44C928.325 346.667 928.899 348.4 928.899 350.64V365.36C928.899 367.6 928.325 369.333 927.179 370.56C926.032 371.787 924.379 372.4 922.219 372.4ZM922.219 368.4C923.739 368.4 924.499 367.48 924.499 365.64V350.36C924.499 348.52 923.739 347.6 922.219 347.6C920.699 347.6 919.939 348.52 919.939 350.36V365.64C919.939 367.48 920.699 368.4 922.219 368.4ZM931.794 368.96C931.794 366.96 932.114 365.253 932.754 363.84C933.394 362.4 934.541 360.813 936.194 359.08C937.821 357.347 938.941 355.867 939.554 354.64C940.194 353.413 940.514 352.133 940.514 350.8C940.514 349.6 940.314 348.773 939.914 348.32C939.541 347.84 938.981 347.6 938.234 347.6C936.714 347.6 935.954 348.52 935.954 350.36V353.36H931.794V350.64C931.794 348.373 932.354 346.64 933.474 345.44C934.594 344.213 936.221 343.6 938.354 343.6C940.488 343.6 942.114 344.213 943.234 345.44C944.354 346.64 944.914 348.373 944.914 350.64C944.914 352.347 944.501 354.013 943.674 355.64C942.874 357.267 941.474 359.133 939.474 361.24C938.168 362.627 937.288 363.76 936.834 364.64C936.381 365.493 936.154 366.413 936.154 367.4V368H944.514V372H931.794V368.96ZM954.33 372.4C952.197 372.4 950.57 371.8 949.45 370.6C948.33 369.373 947.77 367.627 947.77 365.36V363.16H951.93V365.68C951.93 367.493 952.69 368.4 954.21 368.4C955.73 368.4 956.49 367.493 956.49 365.68V359.4C956.49 357.56 955.73 356.64 954.21 356.64C952.69 356.64 951.93 357.56 951.93 359.4V359.64H947.77L948.57 344H960.17V348H952.49L952.13 354.68H952.21C953.037 353.32 954.303 352.64 956.01 352.64C957.61 352.64 958.823 353.187 959.65 354.28C960.477 355.373 960.89 356.96 960.89 359.04V365.36C960.89 367.627 960.33 369.373 959.21 370.6C958.09 371.8 956.463 372.4 954.33 372.4Z" fill="black"/>
<path d="M617.656 382.8H619.864L621.576 389.504H621.608V382.8H623.176V394H621.368L619.256 385.824H619.224V394H617.656V382.8ZM627.348 394.16C626.484 394.16 625.823 393.915 625.364 393.424C624.905 392.933 624.676 392.24 624.676 391.344V385.456C624.676 384.56 624.905 383.867 625.364 383.376C625.823 382.885 626.484 382.64 627.348 382.64C628.212 382.64 628.873 382.885 629.332 383.376C629.791 383.867 630.02 384.56 630.02 385.456V391.344C630.02 392.24 629.791 392.933 629.332 393.424C628.873 393.915 628.212 394.16 627.348 394.16ZM627.348 392.56C627.956 392.56 628.26 392.192 628.26 391.456V385.344C628.26 384.608 627.956 384.24 627.348 384.24C626.74 384.24 626.436 384.608 626.436 385.344V391.456C626.436 392.192 626.74 392.56 627.348 392.56ZM631.53 382.8H634.138C635.045 382.8 635.706 383.013 636.122 383.44C636.538 383.856 636.746 384.501 636.746 385.376V386.064C636.746 387.227 636.362 387.963 635.594 388.272V388.304C636.021 388.432 636.32 388.693 636.49 389.088C636.672 389.483 636.762 390.011 636.762 390.672V392.64C636.762 392.96 636.773 393.221 636.794 393.424C636.816 393.616 636.869 393.808 636.954 394H635.162C635.098 393.819 635.056 393.648 635.034 393.488C635.013 393.328 635.002 393.04 635.002 392.624V390.576C635.002 390.064 634.917 389.707 634.746 389.504C634.586 389.301 634.304 389.2 633.898 389.2H633.29V394H631.53V382.8ZM633.93 387.6C634.282 387.6 634.544 387.509 634.714 387.328C634.896 387.147 634.986 386.843 634.986 386.416V385.552C634.986 385.147 634.912 384.853 634.762 384.672C634.624 384.491 634.4 384.4 634.09 384.4H633.29V387.6H633.93ZM639.648 384.4H637.808V382.8H643.248V384.4H641.408V394H639.648V384.4ZM644.42 382.8H646.18V387.36H648.068V382.8H649.828V394H648.068V388.96H646.18V394H644.42V382.8ZM654.342 382.8H659.142V384.4H656.102V387.36H658.518V388.96H656.102V392.4H659.142V394H654.342V382.8ZM661.834 382.8H664.218L666.042 394H664.282L663.962 391.776V391.808H661.962L661.642 394H660.01L661.834 382.8ZM663.754 390.288L662.97 384.752H662.938L662.17 390.288H663.754ZM669.457 394.16C668.604 394.16 667.958 393.92 667.521 393.44C667.084 392.949 666.865 392.251 666.865 391.344V390.704H668.529V391.472C668.529 392.197 668.833 392.56 669.441 392.56C669.74 392.56 669.964 392.475 670.113 392.304C670.273 392.123 670.353 391.835 670.353 391.44C670.353 390.971 670.246 390.56 670.033 390.208C669.82 389.845 669.425 389.413 668.849 388.912C668.124 388.272 667.617 387.696 667.329 387.184C667.041 386.661 666.897 386.075 666.897 385.424C666.897 384.539 667.121 383.856 667.569 383.376C668.017 382.885 668.668 382.64 669.521 382.64C670.364 382.64 670.998 382.885 671.425 383.376C671.862 383.856 672.081 384.549 672.081 385.456V385.92H670.417V385.344C670.417 384.96 670.342 384.683 670.193 384.512C670.044 384.331 669.825 384.24 669.537 384.24C668.95 384.24 668.657 384.597 668.657 385.312C668.657 385.717 668.764 386.096 668.977 386.448C669.201 386.8 669.601 387.227 670.177 387.728C670.913 388.368 671.42 388.949 671.697 389.472C671.974 389.995 672.113 390.608 672.113 391.312C672.113 392.229 671.884 392.933 671.425 393.424C670.977 393.915 670.321 394.16 669.457 394.16ZM674.818 384.4H672.978V382.8H678.418V384.4H676.578V394H674.818V384.4ZM679.59 382.8H684.39V384.4H681.35V387.36H683.766V388.96H681.35V392.4H684.39V394H679.59V382.8ZM685.723 382.8H688.331C689.238 382.8 689.899 383.013 690.315 383.44C690.731 383.856 690.939 384.501 690.939 385.376V386.064C690.939 387.227 690.555 387.963 689.787 388.272V388.304C690.214 388.432 690.512 388.693 690.683 389.088C690.864 389.483 690.955 390.011 690.955 390.672V392.64C690.955 392.96 690.966 393.221 690.987 393.424C691.008 393.616 691.062 393.808 691.147 394H689.355C689.291 393.819 689.248 393.648 689.227 393.488C689.206 393.328 689.195 393.04 689.195 392.624V390.576C689.195 390.064 689.11 389.707 688.939 389.504C688.779 389.301 688.496 389.2 688.091 389.2H687.483V394H685.723V382.8ZM688.123 387.6C688.475 387.6 688.736 387.509 688.907 387.328C689.088 387.147 689.179 386.843 689.179 386.416V385.552C689.179 385.147 689.104 384.853 688.955 384.672C688.816 384.491 688.592 384.4 688.283 384.4H687.483V387.6H688.123ZM692.496 382.8H694.704L696.416 389.504H696.448V382.8H698.016V394H696.208L694.096 385.824H694.064V394H692.496V382.8ZM702.527 382.8H704.287V387.36H706.175V382.8H707.935V394H706.175V388.96H704.287V394H702.527V382.8ZM709.565 382.8H711.325V394H709.565V382.8ZM712.964 382.8H714.724V392.4H717.62V394H712.964V382.8ZM718.784 382.8H720.544V392.4H723.44V394H718.784V382.8ZM730.046 394.16C729.193 394.16 728.542 393.92 728.094 393.44C727.646 392.949 727.422 392.251 727.422 391.344V382.8H729.182V391.472C729.182 391.856 729.257 392.133 729.406 392.304C729.566 392.475 729.79 392.56 730.078 392.56C730.366 392.56 730.585 392.475 730.734 392.304C730.894 392.133 730.974 391.856 730.974 391.472V382.8H732.67V391.344C732.67 392.251 732.446 392.949 731.998 393.44C731.55 393.92 730.899 394.16 730.046 394.16ZM734.244 382.8H736.452L738.164 389.504H738.196V382.8H739.764V394H737.956L735.844 385.824H735.812V394H734.244V382.8ZM741.392 382.8H743.152V394H741.392V382.8ZM744.326 382.8H746.102L747.254 391.488H747.286L748.438 382.8H750.054L748.358 394H746.022L744.326 382.8ZM751.219 382.8H756.019V384.4H752.979V387.36H755.395V388.96H752.979V392.4H756.019V394H751.219V382.8ZM757.352 382.8H759.96C760.866 382.8 761.528 383.013 761.944 383.44C762.36 383.856 762.568 384.501 762.568 385.376V386.064C762.568 387.227 762.184 387.963 761.416 388.272V388.304C761.842 388.432 762.141 388.693 762.312 389.088C762.493 389.483 762.584 390.011 762.584 390.672V392.64C762.584 392.96 762.594 393.221 762.616 393.424C762.637 393.616 762.69 393.808 762.776 394H760.984C760.92 393.819 760.877 393.648 760.856 393.488C760.834 393.328 760.824 393.04 760.824 392.624V390.576C760.824 390.064 760.738 389.707 760.568 389.504C760.408 389.301 760.125 389.2 759.72 389.2H759.112V394H757.352V382.8ZM759.752 387.6C760.104 387.6 760.365 387.509 760.536 387.328C760.717 387.147 760.808 386.843 760.808 386.416V385.552C760.808 385.147 760.733 384.853 760.584 384.672C760.445 384.491 760.221 384.4 759.912 384.4H759.112V387.6H759.752ZM766.413 394.16C765.559 394.16 764.914 393.92 764.477 393.44C764.039 392.949 763.821 392.251 763.821 391.344V390.704H765.485V391.472C765.485 392.197 765.789 392.56 766.397 392.56C766.695 392.56 766.919 392.475 767.069 392.304C767.229 392.123 767.309 391.835 767.309 391.44C767.309 390.971 767.202 390.56 766.989 390.208C766.775 389.845 766.381 389.413 765.805 388.912C765.079 388.272 764.573 387.696 764.285 387.184C763.997 386.661 763.853 386.075 763.853 385.424C763.853 384.539 764.077 383.856 764.525 383.376C764.973 382.885 765.623 382.64 766.477 382.64C767.319 382.64 767.954 382.885 768.381 383.376C768.818 383.856 769.037 384.549 769.037 385.456V385.92H767.373V385.344C767.373 384.96 767.298 384.683 767.149 384.512C766.999 384.331 766.781 384.24 766.493 384.24C765.906 384.24 765.613 384.597 765.613 385.312C765.613 385.717 765.719 386.096 765.933 386.448C766.157 386.8 766.557 387.227 767.133 387.728C767.869 388.368 768.375 388.949 768.653 389.472C768.93 389.995 769.069 390.608 769.069 391.312C769.069 392.229 768.839 392.933 768.381 393.424C767.933 393.915 767.277 394.16 766.413 394.16ZM770.398 382.8H772.158V394H770.398V382.8ZM775.172 384.4H773.332V382.8H778.772V384.4H776.932V394H775.172V384.4ZM781.623 389.232L779.495 382.8H781.367L782.567 386.912H782.599L783.799 382.8H785.511L783.383 389.232V394H781.623V389.232ZM792.162 394.8C791.277 394.8 790.642 394.613 790.258 394.24C789.885 393.867 789.698 393.237 789.698 392.352V384.448C789.698 383.563 789.885 382.933 790.258 382.56C790.642 382.187 791.277 382 792.162 382H792.706V383.44H792.274C791.986 383.44 791.778 383.515 791.65 383.664C791.522 383.803 791.458 384.064 791.458 384.448V392.352C791.458 392.736 791.522 393.003 791.65 393.152C791.778 393.291 791.986 393.36 792.274 393.36H792.706V394.8H792.162ZM794.248 382.8H796.456L798.168 389.504H798.2V382.8H799.768V394H797.96L795.848 385.824H795.816V394H794.248V382.8ZM801.396 382.8H806.196V384.4H803.156V387.36H805.572V388.96H803.156V392.4H806.196V394H801.396V382.8ZM807.528 382.8H809.288V387.36H811.176V382.8H812.936V394H811.176V388.96H809.288V394H807.528V382.8ZM817.127 394.16C816.274 394.16 815.623 393.92 815.175 393.44C814.727 392.949 814.503 392.251 814.503 391.344V382.8H816.263V391.472C816.263 391.856 816.338 392.133 816.487 392.304C816.647 392.475 816.871 392.56 817.159 392.56C817.447 392.56 817.666 392.475 817.815 392.304C817.975 392.133 818.055 391.856 818.055 391.472V382.8H819.751V391.344C819.751 392.251 819.527 392.949 819.079 393.44C818.631 393.92 817.981 394.16 817.127 394.16ZM821.229 393.36H821.661C821.949 393.36 822.157 393.291 822.285 393.152C822.413 393.003 822.477 392.736 822.477 392.352V384.448C822.477 384.064 822.413 383.803 822.285 383.664C822.157 383.515 821.949 383.44 821.661 383.44H821.229V382H821.773C822.658 382 823.287 382.187 823.661 382.56C824.045 382.933 824.237 383.563 824.237 384.448V392.352C824.237 393.237 824.045 393.867 823.661 394.24C823.287 394.613 822.658 394.8 821.773 394.8H821.229V393.36ZM826.643 394H826.067V392.304H827.763V393.824L826.883 395.92H826.067L826.643 394ZM834.573 394.16C833.719 394.16 833.074 393.92 832.637 393.44C832.199 392.949 831.981 392.251 831.981 391.344V390.704H833.645V391.472C833.645 392.197 833.949 392.56 834.557 392.56C834.855 392.56 835.079 392.475 835.229 392.304C835.389 392.123 835.469 391.835 835.469 391.44C835.469 390.971 835.362 390.56 835.149 390.208C834.935 389.845 834.541 389.413 833.965 388.912C833.239 388.272 832.733 387.696 832.445 387.184C832.157 386.661 832.013 386.075 832.013 385.424C832.013 384.539 832.237 383.856 832.685 383.376C833.133 382.885 833.783 382.64 834.637 382.64C835.479 382.64 836.114 382.885 836.541 383.376C836.978 383.856 837.197 384.549 837.197 385.456V385.92H835.533V385.344C835.533 384.96 835.458 384.683 835.309 384.512C835.159 384.331 834.941 384.24 834.653 384.24C834.066 384.24 833.773 384.597 833.773 385.312C833.773 385.717 833.879 386.096 834.093 386.448C834.317 386.8 834.717 387.227 835.293 387.728C836.029 388.368 836.535 388.949 836.813 389.472C837.09 389.995 837.229 390.608 837.229 391.312C837.229 392.229 836.999 392.933 836.541 393.424C836.093 393.915 835.437 394.16 834.573 394.16ZM838.558 382.8H840.318V387.36H842.206V382.8H843.966V394H842.206V388.96H840.318V394H838.558V382.8ZM845.597 382.8H847.357V394H845.597V382.8ZM848.995 382.8H850.755V392.4H853.651V394H848.995V382.8ZM854.815 382.8H856.575V392.4H859.471V394H854.815V382.8ZM863.116 394.16C862.252 394.16 861.591 393.915 861.132 393.424C860.674 392.933 860.444 392.24 860.444 391.344V385.456C860.444 384.56 860.674 383.867 861.132 383.376C861.591 382.885 862.252 382.64 863.116 382.64C863.98 382.64 864.642 382.885 865.1 383.376C865.559 383.867 865.788 384.56 865.788 385.456V391.344C865.788 392.24 865.559 392.933 865.1 393.424C864.642 393.915 863.98 394.16 863.116 394.16ZM863.116 392.56C863.724 392.56 864.028 392.192 864.028 391.456V385.344C864.028 384.608 863.724 384.24 863.116 384.24C862.508 384.24 862.204 384.608 862.204 385.344V391.456C862.204 392.192 862.508 392.56 863.116 392.56ZM867.299 382.8H869.507L871.219 389.504H871.251V382.8H872.819V394H871.011L868.899 385.824H868.867V394H867.299V382.8ZM876.943 394.16C876.089 394.16 875.439 393.92 874.991 393.44C874.543 392.949 874.319 392.251 874.319 391.344V385.456C874.319 384.549 874.543 383.856 874.991 383.376C875.439 382.885 876.089 382.64 876.943 382.64C877.796 382.64 878.447 382.885 878.895 383.376C879.343 383.856 879.567 384.549 879.567 385.456V386.416H877.903V385.344C877.903 384.608 877.599 384.24 876.991 384.24C876.383 384.24 876.079 384.608 876.079 385.344V391.472C876.079 392.197 876.383 392.56 876.991 392.56C877.599 392.56 877.903 392.197 877.903 391.472V389.28H877.023V387.68H879.567V391.344C879.567 392.251 879.343 392.949 878.895 393.44C878.447 393.92 877.796 394.16 876.943 394.16ZM881.593 394H881.017V392.304H882.713V393.824L881.833 395.92H881.017L881.593 394ZM887.235 382.8H889.747L890.867 390.816H890.899L892.019 382.8H894.531V394H892.867V385.52H892.835L891.555 394H890.083L888.803 385.52H888.771V394H887.235V382.8ZM896.164 382.8H900.964V384.4H897.924V387.36H900.34V388.96H897.924V392.4H900.964V394H896.164V382.8ZM904.793 394.16C903.939 394.16 903.289 393.92 902.841 393.44C902.393 392.949 902.169 392.251 902.169 391.344V385.456C902.169 384.549 902.393 383.856 902.841 383.376C903.289 382.885 903.939 382.64 904.793 382.64C905.646 382.64 906.297 382.885 906.745 383.376C907.193 383.856 907.417 384.549 907.417 385.456V386.416H905.753V385.344C905.753 384.608 905.449 384.24 904.841 384.24C904.233 384.24 903.929 384.608 903.929 385.344V391.472C903.929 392.197 904.233 392.56 904.841 392.56C905.449 392.56 905.753 392.197 905.753 391.472V389.28H904.873V387.68H907.417V391.344C907.417 392.251 907.193 392.949 906.745 393.44C906.297 393.92 905.646 394.16 904.793 394.16ZM908.867 382.8H910.627V387.36H912.515V382.8H914.275V394H912.515V388.96H910.627V394H908.867V382.8ZM917.265 382.8H919.649L921.473 394H919.713L919.393 391.776V391.808H917.393L917.073 394H915.441L917.265 382.8ZM919.185 390.288L918.401 384.752H918.369L917.601 390.288H919.185ZM922.647 382.8H924.407V392.4H927.303V394H922.647V382.8ZM929.89 382.8H932.274L934.098 394H932.338L932.018 391.776V391.808H930.018L929.698 394H928.066L929.89 382.8ZM931.81 390.288L931.026 384.752H930.994L930.226 390.288H931.81ZM936.153 389.232L934.025 382.8H935.897L937.097 386.912H937.129L938.329 382.8H940.041L937.913 389.232V394H936.153V389.232ZM941.78 382.8H944.164L945.988 394H944.228L943.908 391.776V391.808H941.908L941.588 394H939.956L941.78 382.8ZM943.7 390.288L942.916 384.752H942.884L942.116 390.288H943.7ZM947.894 394H947.318V392.304H949.014V393.824L948.134 395.92H947.318L947.894 394ZM953.536 382.8H955.296V394H953.536V382.8ZM956.934 382.8H959.142L960.854 389.504H960.886V382.8H962.454V394H960.646L958.534 385.824H958.502V394H956.934V382.8Z" fill="black"/>
<defs>
<filter id="filter0_f_37_10" x="9.75879" y="105.758" width="987.651" height="226.299" filterUnits="userSpaceOnUse" color-interpolation-filters="sRGB">
<feFlood flood-opacity="0" result="BackgroundImageFix"/>
<feBlend mode="normal" in="SourceGraphic" in2="BackgroundImageFix" result="shape"/>
<feGaussianBlur stdDeviation="5" result="effect1_foregroundBlur_37_10"/>
</filter>
</defs>
</svg>
