<svg width="406" height="112" viewBox="0 0 406 112" fill="none" xmlns="http://www.w3.org/2000/svg">
<path d="M0.875 111V1H34.375L43.625 68.0625L52.8125 1H86.625V111H66.5V31.75L53.875 111H34.125L20.75 31.75V111H0.875ZM95.375 111V1H116.625V111H95.375ZM125.375 111V1H148L158.125 53.6875V1H179.375V111H157.875L146.875 56V111H125.375ZM214.562 112C205.396 112 198.646 109.438 194.312 104.312C189.979 99.1458 187.812 91.5625 187.812 81.5625V1H209.188V80.6875C209.188 82.5208 209.292 84.2917 209.5 86C209.708 87.6667 210.188 89.0417 210.938 90.125C211.688 91.2083 212.896 91.75 214.562 91.75C216.271 91.75 217.5 91.2292 218.25 90.1875C219 89.1042 219.458 87.7083 219.625 86C219.833 84.2917 219.938 82.5208 219.938 80.6875V1H241.312V81.5625C241.312 91.5625 239.146 99.1458 234.812 104.312C230.479 109.438 223.729 112 214.562 112ZM275.875 112C265.833 112 258.583 109.5 254.125 104.5C249.708 99.5 247.5 91.5417 247.5 80.625V69.875H269.25V83.625C269.25 86.1667 269.625 88.1667 270.375 89.625C271.167 91.0417 272.521 91.75 274.438 91.75C276.438 91.75 277.812 91.1667 278.562 90C279.354 88.8333 279.75 86.9167 279.75 84.25C279.75 80.875 279.417 78.0625 278.75 75.8125C278.083 73.5208 276.917 71.3542 275.25 69.3125C273.625 67.2292 271.354 64.8125 268.438 62.0625L258.562 52.6875C251.188 45.7292 247.5 37.7708 247.5 28.8125C247.5 19.4375 249.667 12.2917 254 7.375C258.375 2.45833 264.688 0 272.938 0C283.021 0 290.167 2.6875 294.375 8.0625C298.625 13.4375 300.75 21.6042 300.75 32.5625H278.375V25C278.375 23.5 277.938 22.3333 277.062 21.5C276.229 20.6667 275.083 20.25 273.625 20.25C271.875 20.25 270.583 20.75 269.75 21.75C268.958 22.7083 268.562 23.9583 268.562 25.5C268.562 27.0417 268.979 28.7083 269.812 30.5C270.646 32.2917 272.292 34.3542 274.75 36.6875L287.438 48.875C289.979 51.2917 292.312 53.8542 294.438 56.5625C296.562 59.2292 298.271 62.3542 299.562 65.9375C300.854 69.4792 301.5 73.8125 301.5 78.9375C301.5 89.2708 299.583 97.375 295.75 103.25C291.958 109.083 285.333 112 275.875 112ZM335.625 112C326.333 112 319.146 109.396 314.062 104.188C309.021 98.9792 306.5 91.4792 306.5 81.6875V32.0625C306.5 21.7292 308.896 13.8125 313.688 8.3125C318.521 2.77083 325.833 0 335.625 0C345.458 0 352.771 2.77083 357.562 8.3125C362.354 13.8125 364.75 21.7292 364.75 32.0625V81.6875C364.75 91.4792 362.229 98.9792 357.188 104.188C352.146 109.396 344.958 112 335.625 112ZM335.625 91.75C337.333 91.75 338.667 90.9792 339.625 89.4375C340.583 87.8958 341.062 86.1667 341.062 84.25V29.9375C341.062 27.3542 340.771 25.1042 340.188 23.1875C339.646 21.2292 338.125 20.25 335.625 20.25C333.125 20.25 331.583 21.2292 331 23.1875C330.458 25.1042 330.188 27.3542 330.188 29.9375V84.25C330.188 86.1667 330.667 87.8958 331.625 89.4375C332.625 90.9792 333.958 91.75 335.625 91.75ZM382.438 111V26.25C380.938 28.0417 378.875 29.5 376.25 30.625C373.625 31.7083 371.146 32.25 368.812 32.25V14.6875C371.021 14.3542 373.396 13.6458 375.938 12.5625C378.479 11.4375 380.833 9.91667 383 8C385.208 6.04167 386.896 3.6875 388.062 0.9375H405.75V111H382.438Z" fill="white"/>
</svg>
