<?xml version="1.0" encoding="UTF-8"?>
<svg id="Layer_2" xmlns="http://www.w3.org/2000/svg" viewBox="0 0 168.82 242.28">
  <g id="Layer_1-2" data-name="Layer_1">
    <path fill="#f47427" d="M167.09,2.24c-1.74-.08-3.6.83-3.6.83l-.5-1.69s-2.56-1.24-3.06-1.28c-.5-.04-1.36,0-1.36,0,0,0-2.02-.29-2.69.17-.66.46-1.78,1.2-1.78,1.2,0,0-.46-.33-.66-.37-.21-.04-1.57,0-1.57,0l-3.35,2.69s-4.67,4.13-5.33,6.61c0,0-1.2.87-14.34,3.18-13.15,2.31-15.71,5.79-15.71,5.79,0,0-3.47,1.16-6.7,3.72,0,0-2.32-2.65-4.3-1.74-1.98.91-2.73,1.65-2.73,1.65,0,0-6.12,1.32-7.69,1.9-1.57.58-5.62,3.72-5.62,3.72l-5.21,4.96c-1.32,0-13.48-2.32-21.66-.58s-15.21,5.29-15.21,5.29c0,0-2.32.08-3.06,0-.74-.08-1.65.41-1.65.41h-1.82s-5.1-2.26-8.24-2.92-10.8.1-11.24-.25-3.42-2.69-3.91-3.18-2.92-1.42-2.92-1.42c0,0-1.17-1.12-2-1.28s-1.61-.33-1.61-.33l-3.72.5s-.21.99.83,1.12c1.03.12,3.02.25,3.02.25l.87.33s1.32,1.12,1.2,1.24l-.12.12-2.36-.99-4.3-.37s-1.28-.12-1.45.41c-.17.54.46,1.28,1.53,1.32,1.07.04,3.89.54,3.89.54,0,0,1.24.87,1.07.99s-.62.21-.62.21l-3.18-.54H1.2l-1.16.33s-.25.95.41,1.28,1.9.37,1.9.37l2.89.37s2.52,1.07,2.36,1.28c-.17.21-.41.58-.54.62s-2.6,0-2.6,0c0,0-2.03-1.16-2.77-1.24s-.79,1.15-.37,1.26c.41.11,2.03,1.88,2.52,2.09.5.21,6.08,1.28,7.44,1.36s3.43-.5,3.43-.5c0,0,5.29.95,6.49,1.12s2.27.21,2.27.21l8.35,4.05s-10.87,10.5-11.86,11-3.72,3.14-3.72,3.14c0,0-3.39,2.23-3.64,2.4-.25.17-.83,1.82-.83,1.82l-4.3,4.13s-5.79,9.51-6.12,10.42c-.33.91.25,5.87.25,5.87,0,0-1.4,6.7,2.73,11.74,4.13,5.04,13.81,30.84,15.05,34.23s4.05,7.69,4.05,7.69c0,0,.08,1.9.83,2.65s1.65,2.23,1.65,2.23v1.41l.08.66s-1.65,1.24-1.49,2.32l.17,1.07s-2.23,1.82-2.56,4.13-3.39,13.06-3.89,15.13-.41,12.24-.41,12.24l-.41,3.55s-.79.41-.79.91-.54,4.22-.5,4.96,2.77,1.57,2.77,1.57c0,0-.17,8.31-.17,8.76s-.33,1.86-.33,1.86c0,0-1.49-.5-2.89,2.93,0,0-1.49.87-2.03,3.39,0,0-2.85,2.85-2.65,4.55.21,1.7,4.7,6.56,4.7,6.56l6.83,8.76s-3.25,2.92-5.4,4.58c-2.15,1.65-4.3,4.24.99,6.5,5.29,2.26,13.95,3.25,22.49-2.7.17-.11.34-.24.52-.38l4.06,1.81c.06,1.44.78,2.61,1.87,2.85l2.07.45c1.4.3,2.88-1.05,3.31-3.02.41-1.89-.3-3.66-1.6-4.07h0s-.05-.01-.05-.01c-.04-.01-.08-.02-.12-.03-.04,0-.07-.01-.11-.02l-1.96-.43c-.97-.21-1.98.38-2.65,1.41l-1.96-1.23c10.02-8.48,31.11-29.66,41.83-40.54l2.91,1.53c-.1,1.66.65,3.09,1.87,3.35l2.07.45c1.4.3,2.88-1.05,3.31-3.02.41-1.89-.3-3.66-1.6-4.07h0s-.05-.01-.05-.01c-.04-.01-.08-.02-.12-.03-.04,0-.07,0-.11-.01l-1.96-.43c-.8-.17-1.63.2-2.27.91l-1.84-.91c.66-.67,1.25-1.27,1.77-1.8,9.26-9.43,12.48-17.44,11.24-23.56-1.24-6.12-7.61-7.44-11.33-5.04l-.99-2.89s.16-2.32,0-2.73-1.41-2.15-1.41-2.15l-1.24-.16v-1.24s1.9-8.18,2.32-8.93c.41-.74,3.72-9.76,3.72-9.76,0,0,2.65,0,2.89-.16s.25-1.16.41-1.41c.16-.25,1.9-3.06,1.9-3.72s-.91-1.32-.91-1.32c0,0,1.9-4.79,1.9-5.79s.08-3.22.08-3.22l2.9-6.95s3.13-12.15,3.3-16.12c.16-3.97-4.46-7.69-4.46-7.69l-8.02-3.72s-7.27-4.19-13.34-6.67c-6.06-2.48-14.05-5.29-14.05-5.29,0,0,2.76-1.1,3.86-1.49s11.13-5.73,11.13-5.73l.66,2.26s-.22,4.24.5,5.13c.72.88,2.23,1.29,3.14.92,0,0,1.4,1.57,1.9,1.74s1.45-.08,1.45-.08c0,0,1.12,1.07,1.28,1.07s1.36-.46,1.36-.46c0,0,1.03,2.19,1.78,2.36.74.17,2.98-2.6,2.98-2.6,0,0,3.47.08,4.18,0s1.98-.74,1.98-.74l2.07-.33s.54.25,1.2.21c.66-.04,3.14-.59,4.57-5.39,0,0,1.65-.88,1.98-5.07.33-4.19-.77-5.51-.77-5.51,0,0,.28-4.52-2.92-7.99s-4.85-4.13-4.85-4.13c0,0,1.76-1.76,2.32-2.37s1.98-2.04,1.98-2.04c0,0,3.43-1.98,4.31-2.92s1.43-3.86,1.43-3.86l2.7-2.32,3.03-1.65s6.67-2.37,10.69-4.41c4.02-2.04,12.57-5.35,15.6-6.01,3.03-.66,3.86-.72,3.86-.72,0,0,4.57,1.6,7.55-.77s7.99-4.08,9.21-4.74.33-2.37-2.15-2.26c-2.48.11-3.58,1.49-4.3,1.6-.72.11,1.43-2.65,1.43-2.65l3.25-3.14s2.3.37,2.84-.21c.54-.58,0-1.45,0-1.45,0,0,2.73-1.41,2.93-1.78.2-.37.08-1.86-1.66-1.94ZM71.64,99.88c.66,0,7.03,2.56,8.27,2.48,1.24-.08,1.82-.16,1.82-.16l.74,1.98v1.65s-2.56,6.53-2.98,8.18c-.41,1.65-1.16,12.32-1.16,12.32,0,0-1.07-.33-1.07.41s.25,7.19.25,7.19l.33.58s-2.11,12.82-2.4,13.15c-.29.33-2.03,2.73-2.03,2.73,0,0-1.9.04-3.39,2.27-1.49,2.23-3.1,4.59-3.76,5.21-.66.62-2.4,2.48-2.19,3.06.21.58,6.41,6.16,6.86,6.65s7.57,5.13,7.57,5.13c0,0-2.98,4.05-5.29,5.91s-18.68,17.82-22.65,21.62-16.29,15.63-16.29,15.63l-2.73-2.73s-.66-3.39-.66-3.64-.33-1.98-.33-1.98l-1.32-1.16s-.99-9.92-.83-10.34c.17-.41.66-1.32.66-1.32l2.26.41s1.95-4.55,1.95-4.88-.33-1.32-.33-1.32c0,0,4.05-19.01,4.13-19.43.08-.41,1.41-2.23,1.41-2.23l1.65-8.18s1.9-3.55,1.9-3.97,1.65-11.66,1.4-13.48-2.07-10.09-2.07-10.5-5.45-16.7-5.45-17.94c0-1.24.25-4.55,0-5.04s.74-7.44.74-7.44l2.32-4.88s11.66,2.23,16.37,2.32c4.71.08,15.63,1.74,16.29,1.74Z"/>
  </g>
</svg>