<?xml version="1.0" encoding="UTF-8"?>
<svg id="Layer_2" xmlns="http://www.w3.org/2000/svg" viewBox="0 0 192.6 197.03">
  <g id="Layer_1-2" data-name="Layer_1">
    <path fill="#f47427" d="M192.56,14.67l-.41.75s.68-3.51-.99-5.76l-.12.96s-.21-3.91-4.45-6.08C186.59,4.54,182.26-.04,176.81,0c-5.45.04-7.04,2.08-7.04,2.08l.25-.79-1,.87-.17-.67-.54,1.25s-7.35,2.83-7.29,7.02l-.44-.38.12,1-.38-.25s-1.62,4.93.62,7.06c0,0-.56,1.25.19,1.62,0,0-2.12,1.94-1.37,3l-1.04,1.71s-2.12-.08-3.37.42c-1.25.5-5.66-.87-9.24,1.42s-5.79.29-11.7,6.2c-5.91,5.91-14.74,17.32-16.24,19.98s-2.08,4.75-2.08,4.75c0,0-2,4.75-5.83,6.83-3.83,2.08-5.41,3.5-5.24,5.08,0,0-2.66.92-2.91,1.92-.25,1-1.25,2.25-3.41,3.58-2.16,1.33-4.25,1.25-3.83,3.16,0,0-4.25,3.33-6.74,8.99-2.5,5.66-1.25,10.66-1.25,10.66,0,0-1.08,4-1.25,5.24s-3.83,4.33-4.58,6.08c-.75,1.75-4.75,4.75-5.58,7.24s-2.25,7.08-2.25,7.08c0,0-.83-.33-.67,1s-2.41.17-3,1.83-4.83-.42-10.74-1.67c-5.91-1.25-21.13.04-22.69-1.02-1.56-1.06-3.06-2.43-4.06-2.43s-1.87.31-1.87.31l-.31.56s-3.81.19-4.06.38c-.25.19-.56.5-.56.5l-2.72-.12s.38-1.22-.5-2.06c-.87-.84-3.09-1.31-3.09-1.31,0,0-1.28-1.69-2.34-2-1.06-.31-6.74-1.19-6.74-1.19,0,0-.56-.66-3.09,4.31-2.53,4.96-6.29,18.52-6.62,20.69s-.21,10.49.62,11.41c.83.92,2.66.96,3.21.75.54-.21,3.2-4.58,3.5-5.12s.58-1.46.58-1.46l1.54-1.21s2.12-.83,2.29-.96c.17-.12,4.7-4.87,4.83-4.91.12-.04,2.37-.67,4.75-.87,2.37-.21,3.37-.5,3.5-1.08.12-.58-2.12-3.21-2.12-3.21l.29-.54,2.42.12.08.38,2.33.29s1.04.83,1.17.83h4.58s1.58,1.21,3.87,1.5c2.29.29,3.96.29,3.96.29,0,0,24.02,6.24,26.18,7.16,2.17.92,6.41,1.75,7.08,1.58.67-.17,9.91-4.41,10.99-5.33,1.08-.92,2.5-3.58,2.5-3.58,0,0,3.5-4.08,3.66-4.33.17-.25,2.25-1.83,3.66-3.25s11.16-13.24,12.49-14.15,5.58-5.66,5.58-5.66c0,0,9.07,8.99,9.82,10.24.75,1.25,2.91,3.75,3.66,4.33.75.58,7.16,3.41,7.16,3.41,0,0-.25,1.25.75,1.42,0,0-.87,1.37.04,2,0,0-1.29,3.91-1.12,4.5s.21,1,.21,1l-2.12,2.12s-3.87,15.78-3.75,16.4.46,1.5.33,1.67c-.12.17-3.58,4-3.91,5.41-.33,1.42.5,2.29.96,2.33.46.04-.67,3.12-.75,3.58-.08.46.5.87.5.87l-.29.87s-1.66-.33-2.79.87c-1.12,1.21-1.04,2.91-1.04,2.91,0,0-1.46,1.67-1.58,2.62-.12.96-.12,2.71-.12,2.71,0,0-17.19.75-19.02.42s-8.08-2.5-12.16-2.96c-4.08-.46-5.58,1.75-4.62,3.79.96,2.04,12.03,6.79,13.49,7.54.37.19,2.44.34,5.45.45v2.2c-1.3.42-2.25,1.64-2.25,3.09,0,1.79,1.45,3.25,3.25,3.25s3.25-1.45,3.25-3.25c0-.81-.3-1.55-.8-2.12l2.71-1.87.22-1.13c9.09.16,20.81.12,25.42-.08,5.47-.23,14.85.09,20.33.3l.17.76h.72s.12,1.28.25,1.37c.09.07,1.46,1.07,2.28,1.67-.73.6-1.19,1.5-1.19,2.51,0,1.79,1.45,3.25,3.25,3.25s3.25-1.45,3.25-3.25c0-1.48-.99-2.72-2.34-3.12v-1.44l1.12-.9v-.55c1.82.08,3.88.11,4.88-.15,1.79-.46,12.82-4.75,15.11-7.2s.5-4.95-5.74-3.75-9.32,2.75-11.53,2.71c-2.21-.04-12.49-.87-12.49-.87,0,0-6.66-2.5-7.16-2.87-.5-.38-5.2-4.16-5.87-4.62s-2.83-1.21-2.83-1.21l-.25-1.29s.92.04.92-.38-.33-2.66-.33-2.66c0,0,1.41-.29,1.54-.75s.29-.87.29-.87c0,0,.83,0,1.17-.46.33-.46,7.95-19.65,8.74-21.44.79-1.79,1.5-3.91,1.71-4.45.21-.54,2.75-4.45,3.16-5.91s.67-6.83.54-7.7-3.71-7.08-3.83-8.28-.04-3.29-.04-3.29l-5.2-9.58s0-1.5-.17-1.83-1.29-1.54-1.29-1.54c0,0-.92-.08-1.37-2.83s-2.58-3.5-3-3.45c-.42.04-8.41-6.99-8.41-6.99l.92-2.29s4.5-2.33,4.54-3.25c.04-.92.08-2.12.08-2.12,0,0,1.33-.96,1.46-1.08s6.29-7.95,6.29-7.95c0,0-.75,4.12-.96,4.95-.21.83.12,3.29.92,4.62,0,0,1.79,7.83,2.33,9.95.54,2.12,7.24,12.11,7.7,13.74s.12,4.45.62,6.08c.5,1.62,3.6,6.34,3.6,6.34l-.38,2.31-.41.19s-1,0-1.25.62c-.25.62.53,1.19.72,1.22.19.03,2.19.12,2.19.12,0,0,.28.31.84.34.56.03,1.28-.22,1.28-.22l1.53-1.15s.9.03,1.34-.22c.44-.25.97-1.69.97-1.69l.12-.81s.78-.22.9-.56c.12-.34.03-3.4.03-3.75s.06-1.62-.09-2.09c-.16-.47-.97-1.34-.97-1.34,0,0-4.37-4.25-4.5-5.15-.12-.9-1.59-7.18-2.03-9.43-.44-2.25-.97-12.99-1.53-14.99s-1.94-4.25-1.9-5.18,1.59-8.15,1.78-10.33c.19-2.19.25-3.25.25-3.25,0,0,.5-.03.84-.81s.56-2.09.56-2.09c0,0,.72-1.06.97-2.09s.56-3.31.56-3.31l1.87-2.75s2.53-3.06,2.78-6.06.69-5.49.69-5.49c0,0,3.83-.35,4.16-.4s1.79-1.5,2.16-1.5,2,.29,2,.29c0,0,3.46,2.21,4.62,2.17,1.17-.04,1.66-.92,1.66-2.17,0,0,1.27-.6,2.1-.75.83-.15,1.04-.6.81-1.29,0,0,.77-.21.87-.54.1-.33.17-1.73.17-1.73l.29-.4s2.21.1,2.48-.12c.27-.23.44-.56.46-.81s-.71-4.27-.71-4.27c0,0,.71-.71.81-1.44,0,0,1.29-.54,1.46-1.21s0-5.08,0-5.08h.97s3,.19,2.59-3.21Z"/>
  </g>
</svg>