<?xml version="1.0" encoding="UTF-8"?>
<svg id="Layer_2" xmlns="http://www.w3.org/2000/svg" viewBox="0 0 149.37 222.6">
  <defs>
    <style>
      .cls-1 {
        fill: #f47427;
      }
    </style>
  </defs>
  <g id="Layer_1-2" data-name="Layer_1">
    <path class="cls-1" d="M118.26,119.97s2.14,11.55,3.99,14.83c2.57,13.98,3.99,14.55,3.99,14.55,0,0,4.28,28.1,5.42,34.95-.14,4.28-.71,8.7-2.71,10.55-2,1.86-4.42,4.57-4.71,9.56,2.71,1.43,2.99-3.28,5.99-4.14,2.99-.86,6.28,2.71,7.42,5.85,1.14,3.14,1.71,5.71,2.71,5.71s1.28-3.71,1.28-3.71c0,0,3.14,6.85,5.42,7.13,2.28,1,1.57-1.43,1.57-1.43,0,0,1.29-.85.43-3.28-.86-2.42-4.42-11.13-7.99-15.12-.28-1.28.86-9.7.86-9.7,0,0,3.28-19.54-.86-36.8-4.13-17.26-3.85-22.54-7.13-27.25,0-16.97-2-17.12-2-17.12,0,0,6.7-17.83-2.43-24.39,0,0,2.28-.14,3.57,0,.14-1.28-3-1.57-4.71-.86-.43-5.13-21.54-15.69-29.24,2.85-8.41-1.85-23.25-.29-23.25-.29,0,0-7.13-12.26-24.61-7.27-1.85-3.5-2.28-7.7-4.14-9.84-1.85-2.14-1.43-5.13-5.56-7.06-.93-5.78-2.78-6.49-2.78-6.49l-1.85-2.85-8.2,4.42,1.5,2.71s-3.21,2.43-3.5,4.42c-.29,2,5.49,3.5,5.49,3.5,0,0,.93,2.49,1.57,3.85.64,1.36.5,4.78,1.5,6.06-3.99-2.57-12.27-6.63-12.27-6.63,0,0,1-13.12.71-17.76,1.43-4.99.29-8.84.93-11.2.64-2.35,1.43-4.21.86-6.21-.57-2,.57-6.78.57-6.78,0,0,2.57-2.71,1.93-6.56.93-3,2.21-5.49.36-6.85-1.85-1.36-5.35-3.28-5.35-3.28l-3.21.86s-.6-3.67-2-5.06C16.45,2.47,10.35-.2,4.68.01-.99.23-.77,1.51,1.47,4.61c2.03,5.35,9.09,11.88,9.09,11.88,0,0,2.14,4.28,3.21,5.24l.11,2.14-1.39.43s-2.03,9.74-2.25,13.91c-.21,4.17-1.82,7.7-2.14,10.27s-3.64,20.97-2.67,24.82c.96,3.85,3.32,6.42,3.64,7.92.32,1.5,4.92,6.85,7.17,9.95,2.25,3.1,13.91,13.26,20.97,15.4-.43,9.95,4.82,12.84,4.82,12.84l13.91,1.6s-3,9.95-3.85,17.22c-4.07,10.81-3.32,19.26-1.18,27.28,3.21,10.05,13.91,32.95,13.91,32.95l1.93.11s2.78,3.96,3.42,5.35c.64,1.39.43,4.06,1.39,5.88.96,1.82,2.89,4.87,3.32,6.74.43,1.87,2.14,6.37,3.48,6.05,1.34-.32-.64-7.86-.96-8.83.48.59,1.87.96,2.78,3.05.91,2.09,2.84,5.94,4.39,5.67,1.55-.27-2.35-8.83-2.35-8.83,0,0,1.87.7,2.78,2.62.91,1.92,2.62,6.69,4.44,6.26,1.82-.43-.91-7.22-1.34-8.24-.43-1.02-1.76-2.51-1.76-2.51,0,0,6.21,6.63,7.01,6.53.8-.11,2.14-1.28.8-3.11-1.34-1.82-4.92-6.26-4.92-6.26,0,0,2.62.43,3.96.11,2.3,2.14,4.28,1.82,4.87,1.55-2.3-2.62-7.06-5.83-8.02-6.58-.96-.75-4.12-1.02-5.56-1.34-1.44-.32-2.94-1.76-4.07-3.48-1.12-1.71-3.05-6.95-3.05-6.95,0,0-8.27-25.07-9.98-29.92,1-6.56.14-9.41.14-9.41,0,0,5.28-13.41,7.7-25.25,9.98.57,14.12-2.28,14.12-2.28,0,0,9.7,1.71,13.12.86,3.42-.86,8.56-3.42,8.56-3.42,0,0,5.85-2.56,7.28-2.85Z"/>
  </g>
</svg>