<?xml version="1.0" encoding="UTF-8"?>
<svg id="Layer_2" xmlns="http://www.w3.org/2000/svg" viewBox="0 0 182.35 238.24">
  <g id="Layer_1-2" data-name="Layer_1">
    <path fill="#f47427" d="M181.86,10.86c-.32-.21-1.09-.32-1.09-.32h-.42s.67-2.59.52-3.12c-.14-.52-1.16-1.26-1.54-1.33-.39-.07-.7.18-.7.18,0,0-.11-1.68-.24-1.89-.14-.21-1.61-.7-1.93-.7s-2.24,1.75-2.17,1.96c.07.21.24.46.24.46l-.91,1.72-.49-.46v-2l.52-1.44s1.72-2.45,1.72-2.91-.95-1.33-1.96-.91c-1.02.42-2.59,3.12-2.59,3.12l-.56,1.96-.35,2.38-1.96,1.93-1.47-.91s.42-3.12-.07-4.27c-.49-1.16-1.4-.46-1.51-.07s-1.47,3.85-1.37,4.06,1.3,4.34,1.33,4.48,2.28,4.06,2.28,4.06l.42,1.89s-.74,2.31-1.16,2.84-8.41,10.19-16.81,16.78c-8.41,6.58-13.45,13.87-14.01,14.15-.56.28-11.7,6.09-11.7,6.09,0,0-1.05-.56-1.82,0-.77.56-12.96,5.74-12.96,5.74l-.91.63s-6.73-.21-9.04,2.59c0,0-1.54-.35-2.73,1.89-1.19,2.24-4.13,3.99-4.13,3.99l-.77-.91s5.53-4.97,6.16-7.36c.63-2.38-8.55-1.75-12.26.21,0,0-5.32-5.39-11.42-5.25-6.1.14-12.61,3.71-15.34,8.41s-2.1,11.49-.98,14.5c1.12,3.01,4.81,8.55,4.81,8.55l-5.14,6.82s-2.85,3.22-2.71,3.18,0,.65,0,.65c0,0-2,1.77-3.26,3.46-1.26,1.68-2.76,4.3-3.46,4.67s-7.38,2.85-11.11,5.18-16.77,12.19-17.33,12.38-1.03.28-1.03.28c0,0-3.96-.99-4.55-1.52-.6-.52-2.31-1.58-2.8-1.58s-1.19.35-1.19.35c0,0-1.16.28-1.44.49s-4.87,1.75-4.87,1.75l-1.82,1.47s-1.93,2.24-1.79,2.45c.14.21.35.7,1.4.35l.42.32s-.84,2.21-.42,2.45c.42.24.88.11,1.02,0,.14-.11.74-1.02.74-1.02l1.09-1.23.32.11-.7,1.33s-.28,1.61.24,1.72,1.05-.39,1.26-.77c.21-.39,1.19-1.72,1.19-1.72l1.54.14.28.24-.39,1.47s.14,1.02.6,1.05.84-.35.84-.35l.32-1.09.42-.52s4.73,1.02,5.74,1.12,4.03-.39,4.03-.39c0,0,11-2.91,18.33-5.24s11.72-5.28,12.61-6.02c.89-.75,8.27-7.43,9.67-9.01,1.4-1.59,3.36-3.74,3.5-3.78.14-.05,3.92-1.82,4.48-2.29.56-.47.75-.56.84-.75s.51-1.4.51-1.4h.42s1.68.98,2.05,1.17c.37.19,7.33.33,7.33.33l2.85-.19s10.46,6.35,11.3,7.19c.84.84,1.05,1.96,2.24,1.96s2.94-.35,2.94-.35l2.03,1.54s-1.05,1.05-1.19,1.61.42,2.94.42,2.94l-1.47,2.66s-15.69-2.31-22.63-2.59c-6.93-.28-12.75,1.68-15.69,3.92-2.94,2.24-2.94,4.41-2.94,4.41,0,0-.49.98-.49,1.82v3.3l-1.4,6.79-.91,5.18s-.98,8.9-.91,10.23c.07,1.33.07,3.08.07,3.08,0,0-1.82,3.29-1.96,3.85-.14.56-.42,5.18-.42,5.18,0,0-1.05,2.1-.49,3.78.56,1.68,2.03,2.59,2.03,2.59,0,0-.32,5.74-.21,6.17.11.42.74.45.74.45,0,0-.14,2.87-.32,3.75-.17.88-1.86,2.66-1.86,2.66,0,0-1.89-.45-2.31,0-.42.45-5.43,4.8-5.43,4.8l-9.6,4.73s-3.99-1.05-9.07-2.24c-5.08-1.19-8.06-.77-10.37.39s-1.79,4.73.17,6.55c1.96,1.82,7.29,5.46,9.32,5.95,1.34.32,8.62,1.24,13.42,1.83.07.25.13.45.17.45.11,0,1.16.28,1.16.28,0,0,.32,3.39-2.72,5.25-.65-.84-1.56-1.36-2.57-1.36h-2.87c-1.91.08-3.43,2.01-3.43,4.39s1.59,4.39,3.55,4.39h2.76c1.82,0,3.32-1.7,3.52-3.89l8.97-1.44c.65,1.05,1.67,1.73,2.82,1.73h2.76c1.96,0,3.55-1.96,3.55-4.39,0-.95-.24-1.82-.66-2.54,5.6,1.01,12.2,2.18,17.94,3.1,9.22,1.48,18.4,4.84,25.38,6.67.18,1.4.34,3.73-.33,5.11-.25-.07-.5-.11-.76-.11h-2.87c-1.91.08-3.43,2.01-3.43,4.39s1.59,4.39,3.55,4.39h2.76c1.96,0,3.55-1.96,3.55-4.39,0-.15,0-.3-.02-.45l7-1.29c.65,1.05,1.67,1.74,2.82,1.74h2.76c1.96,0,3.55-1.96,3.55-4.39s-1.59-4.39-3.55-4.39h-1.87c9.24-1.42,23.7-4.87,24.71-5.28,1.26-.51,1.26-1.45.98-1.96s-.89-.56-.89-.56c0,0-9.95,1.92-12.56,1.96-2.61.05-17.19-4.2-25.92-6.02-8.73-1.82-42.87-7.52-42.87-7.52,0,0,11.44-.56,12.47-.75s1.82-1.54,1.82-1.54l-.33-4.2s.28-1.73,0-2.38-1.58-3.78-1.58-3.78c0,0,.07-1.77-1.05-2.03-1.06-.24-1.52.4-1.52.4,0,0-.23-3.36-.19-3.92s.65-3.27.65-3.27c0,0,1.49.28,1.87,0,.37-.28.51-.61.51-.61l.19-4.23s1.52-.32,1.62-.35c.11-.04,1.68-1.09,1.96-1.79.28-.7.07-3.5.07-3.75s1.93-4.97,2.1-6.2c.17-1.23.11-5.85.11-5.85,0,0,3.08-6.62,3.22-7.39s-.14-4.38-.11-4.55c.04-.17,1.72-2.21,1.72-2.21l.98-.63s10.68,4.73,12.75,5.15c2.07.42,10.93,2.24,10.93,2.24l.32.95s-2.03,3.92-1.44,7.57,2.35,6.62,2.66,7.64,1.05,3.12,2,4.06c.95.95,1.93,1.09,1.93,1.09l.14,2.21s-.45.98-.35,1.65c.11.67.04,5.01.39,5.22s.52.32.52.32l-.24,4.24s-1.79,0-2.21.28c-.42.28-2.56,5.81-2.56,5.81l-3.22,4.13-1.86,1.82-2.73,2.07-1.58,1.96s-.35.88-.32,1.23.24,3.08.77,3.43c.52.35,6.58.91,11.38.77,4.8-.14,7.57-1.65,8.51-2.28.95-.63,5.6-3.43,6.83-4.06,1.23-.63,2.03-1.02,1.51-3.26,0,0,.21-1.23-.28-2.1-.49-.88-.7-2.7-.7-2.7,0,0,.81-2.1.11-3.4-.7-1.3-1.96-1.33-1.96-1.33l-.11-.45s-.67-5.22-.67-5.36,1.23-.45,1.3-.95c.07-.49.45-6.2.81-6.86.35-.67,3.61-3.08,3.85-4.66s.63-1.72.14-2.52-1.44-2.17-1.44-2.17c0,0,.95-5.53,1.05-5.99.11-.45.49-6.62.49-6.62,0,0,2.55-.84,3.81-1.31s3.22-.7,3.22-.7c0,0,7.99,1.26,12.24-1.26,4.25-2.52,8.59-9.81,9.76-14.57,1.17-4.76,0-7.61,0-7.61,0,0,0-3.41-1.12-5.42s-2.99-4.76-2.99-4.76c0,0,.56-.61.23-1.49s-1.87-2.52-1.87-2.52c0,0-.09-3.55-.37-3.92-.28-.37-3.18-4.53-4.44-6.07-1.26-1.54-5.51-8.31-7.99-11.67s-7.99-11.67-11.3-14.85c0,0,2.24-2.29,2.71-2.57s1.31-.61,1.54-1.35c.23-.75.09-3.92.09-3.92,0,0,14.13-8.45,16.65-9.43,2.52-.98,5.81-5.46,5.81-5.46,0,0,8.27-9.32,10.02-11.7,1.75-2.38,13.03-18.07,13.66-18.84s1.68-3.29,1.68-3.29c0,0,2.63-2.31,3.15-3.71s1.12-4.41,1.12-4.41c0,0,.98-2.49,1.02-2.77.04-.28-.17-1.05-.48-1.26ZM108.85,225.38c-.5.24-.94.61-1.3,1.09l-.48-.89c.55-.05,1.14-.12,1.78-.2ZM104.78,225.67c.04.54-.15,1.09-1.07,1.13-1.21.05-1.92-.89-2.27-1.53,1.22.23,2.34.37,3.33.4Z"/>
  </g>
</svg>