<?xml version="1.0" encoding="UTF-8"?>
<svg id="Layer_2" xmlns="http://www.w3.org/2000/svg" viewBox="0 0 153.25 180.14">
  <defs>
    <style>
      .cls-1 {
        fill: #f47427;
      }
    </style>
  </defs>
  <g id="Layer_1-2" data-name="Layer_1">
    <path class="cls-1" d="M147.9,3.42c-4.45-4.34-11.24-2.56-14.69-.78-3.45,1.78-2.78,4.67-2.78,4.67,0,0-2.67,3.45-3.56,3.45s-3.67-.74-3.67-.74c-1-2.19-6.57-6.83-13.8-9.3-7.23-2.48-23.04,1.81-31.05,6.93s-15.14,4.67-15.36,6.68c-.22,2,1.22,8.79,1.22,8.79,0,0-4.45,5.12-6.79,9.13-2.34,4.01-1,12.13.44,18.81,1.45,6.68,1.78,21.48,1.45,24.15s-.78,3.45-4.01,5.69c-3.23,2.24-9.46,13.45-10.79,16.24-1.34,2.78-4.12,9.35-4.79,10.68-.67,1.34-2.78,1.89-4.9,3.56-1.39,1.1-3.39,2.72-4.26,4.18-10.79-.92-21.74,5.23-27.23,16.44-7.23,14.77-2.28,32.82,11.03,40.22,13.32,7.4,30.04,1.41,37.27-13.37,1.63-3.34,2.64-6.84,3.07-10.35l2.41.13c.13.08.25.17.38.24,3.34,1.86,7.58.34,9.94-3.37l.42-.33.06.03s.04-.07.05-.11l8.35-6.61c.12.63.68,1.18,1.4,1.3l12.25,2.17c.86.15,1.64-.36,1.72-1.13.04-.37-.09-.74-.33-1.04.56.04,1.15.07,1.79.09,1.79.08,3.08-.22,3.92-.69-5.6,14.27-.49,30.78,12.1,37.78,13.32,7.4,30.04,1.41,37.27-13.37,7.23-14.77,2.28-32.82-11.03-40.22-5.66-3.15-11.94-3.87-17.85-2.52-.41-.95-.76-1.5-1.05-1.86-.6-.72-1.33-1.29-2.09-1.68l-2.26-16.09,6.18-3.2-.09-1.5c.05-.1-.26-.53-.4-.69-.23-.26-.57-.58-.86-.85l.88-9.25c.1.27.49.94,1.81.73l.18.24c.22.29.54.43.88.45.15.02.32.02.52-.04,1.04-.3,1.63-.96,1.56-3.04-.07-2.08.59-3.71-.07-5.04-.67-1.34-3.34-2.6-4.01-3.78s-.74-3.78-.74-3.78h-.82s-1.93-9.13-1.34-14.02c.59-4.9,0-11.35,0-11.35,0,0,1.41-.3,1.41-1.56s1.48-7.27,5.27-11.95c3.78-4.67,3.93-7.42,4.15-8.53.22-1.11,1.22-2.21,1.73-1.68.5.53.25,2.42.25,2.42l.31,1.45c.31,1.45,1.95.87,2.58.93.63.06,1.61-.32,2.06-.32s.32.41.56.48c.24.07.63-.06.71-.06s.32-.82.32-.82l.24.65.45.24s.35,0,.8-.19c.45-.18.82-.41,1.41-.07.59.33,1.67,1.52,1.97.78.3-.74,1.6-2.49,2.26-2.6s1.02.02,2.3-.76c1.28-.78,2.56-2.28,2.56-2.28l1,1s4.45-.56,5.01-5.34c.56-4.78-.78-10.13-5.23-14.47ZM66.44,88.23c1.45-1.45,5.23-2.78,7.23-5.9,2-3.12,1.89-11.46,1.89-11.46,0,0,.89,12.13.89,14.91s-.33,4.67-1.56,6.9-1.78,12.35-1.34,18.14c.06.74.09,1.46.09,2.16l-16.42,3.53-2.03-6.71c2.05-.71,4.3-1.46,6.14-2,4.61-1.34,7.73-5.03,6.24-5.93-1.49-.91-3.47-.1-6.78.38-1.39.2-3.59.64-5.9,1.13,5.11-7.12,10.74-14.37,11.52-15.15ZM46.29,117.16c.15-.9,1.25-2.87,2.85-5.37.14.01.25.04.39.04,0,0,.98-.37,2.45-.9l2.04,6.75-7.28,5.67c-.06-.06-.12-.11-.17-.17-.42-2.04-.59-4.19-.27-6.03ZM48.83,125.79c-.15-.19-.3-.38-.46-.57l4.32-3.36-3.87,3.94ZM48.94,141.14l-11.14,1.05,10.94-2.65c.08.53.15,1.06.2,1.6ZM48.01,136.26l-.47-.26.37-.06c.03.11.07.22.1.32ZM48.39,137.72c.11.46.19.93.28,1.4l-12.38,3,2.2-2.24,7.64-3.43,2.27,1.26ZM33.48,140.33c-.05-.02-.1-.05-.15-.07-.23-.09-.46-.14-.7-.17l1.95-1.92,2.5-.42-.32.32-3.29,2.26ZM35.23,139.65l-1.07,1.09c-.08-.06-.17-.12-.26-.18l1.33-.91ZM30.96,138.79l.88-.15-1.48,2.05c-.17.12-.34.26-.5.42h-.04s1.14-2.33,1.14-2.33ZM29.37,141.07h-.16s.36-1.22.36-1.22l.64-.5-.84,1.72ZM32.44,138.54l1.42-.24-1.8,1.77c-.29.02-.58.1-.86.2l1.24-1.73ZM45.27,136.38l-5.97,2.68,1.96-2,4.01-.68ZM43.36,134.92l.81.45-1.5.25.69-.71ZM40.76,131.15c.06.07.12.13.18.19l-.14.14c0-.11-.02-.22-.04-.33h0ZM41.23,131.65c.32.34.63.65.93.94l-3.67,3.74-2.44.41,5.18-5.09ZM39.36,132.89l-4.04,3.97-1.91.32.51-.72,4.74-3.69c.22.1.46.12.7.11ZM36.93,131l-3.47,2.7,2.11-4.3,1.36,1.6ZM32.7,134.29l-1.9,1.48,2.65-8.87,1.82,2.14-2.57,5.25ZM34.51,123.36c.11.15.21.29.33.44l-.34-.4v-.04ZM33.27,121.68c.29.4.6.83.92,1.26l-.03.08-1.2-1.41c.1.02.21.05.31.07ZM30.85,123.86l2.27,2.66-2.9,9.7-1.06.82,1.69-13.19ZM30.02,121.21c-.35.55-.33,1.28.11,1.8l.35.41-1.8,13.99-.69.54-.58-16.67c.87-.08,1.74-.12,2.6-.07ZM29,140.31l-.21.72h-.03c-.03-.08-.05-.16-.07-.23l.03-.27.28-.22ZM26.99,121.33l.59,16.83-.58.1-3.28-16.31c1.08-.3,2.17-.5,3.27-.62ZM23.32,122.09l3.26,16.25-.35.06c-.1-.03-.19-.03-.29-.05l-5.73-15.05c1.01-.49,2.05-.89,3.1-1.21ZM19.84,123.47l5.64,14.81c-.25,0-.5.02-.75.08l-7.75-13.14c.92-.65,1.87-1.25,2.85-1.75ZM16.64,125.47l7.68,13.02c-.25.09-.48.21-.71.35l-9.54-11.21c.82-.79,1.68-1.52,2.57-2.17ZM13.77,127.94l9.51,11.17c-.21.17-.4.37-.57.59l-11.18-9.2c.7-.92,1.45-1.77,2.24-2.56ZM11.26,130.84l11.19,9.21c-.15.23-.28.48-.39.75l-12.64-7.03c.57-1.03,1.17-2.02,1.84-2.93ZM8.74,135c.15-.3.32-.57.47-.86l12.69,7.06c-.03.08-.06.15-.08.23-.05.2-.08.39-.11.59l-13.99-4.68c.3-.79.64-1.57,1.01-2.34ZM7.59,137.74l14.06,4.7c-.02.28-.03.55,0,.82l-15.06-2.06c.26-1.16.59-2.32,1.01-3.46ZM6.49,141.62l15.23,2.08c.04.26.1.51.18.75l-15.9.82c.08-1.22.24-2.43.5-3.65ZM5.96,145.7l16.07-.83c.09.22.21.43.33.63l-16.35,3.96c-.1-1.24-.11-2.5-.04-3.76ZM6.06,149.89l16.58-4.02c.13.17.27.32.43.46l-16.36,7.33c-.31-1.23-.52-2.49-.65-3.78ZM6.83,154.07l16.6-7.44c.15.11.32.19.49.27l-15.79,10.83c-.53-1.17-.95-2.4-1.3-3.66ZM8.32,158.11l16.07-11.02c.14.04.29.08.43.1l-14.54,14.29c-.75-1.05-1.4-2.18-1.97-3.36ZM16.77,167.31c-2.56-1.42-4.7-3.38-6.39-5.71l.18.19,14.84-14.59c.11,0,.21-.01.32-.03l-12.45,17.33.34.25,12.74-17.74h.11s-9.73,19.89-9.73,19.89l.38.19,9.81-20.04h.06s-6.45,21.57-6.45,21.57l.4.12,6.48-21.67h.03s-2.89,22.52-2.89,22.52l.36.05c-2.79-.13-5.56-.89-8.15-2.33ZM24.97,169.64l2.89-22.54h.02s.78,22.34.78,22.34c-1.23.18-2.46.26-3.7.21ZM29.09,169.38l-.78-22.27h.03s4.28,21.31,4.28,21.31c-1.16.42-2.34.75-3.54.95ZM33.03,168.29l-4.25-21.15h.06s7.45,19.57,7.45,19.57c-1.06.62-2.14,1.16-3.26,1.59ZM36.67,166.5l-7.36-19.33h.12s10.15,17.22,10.15,17.22c-.93.78-1.9,1.49-2.91,2.1ZM39.9,164.11l-9.58-16.25c.22.15.46.27.71.37l11.38,13.37c-.79.91-1.63,1.74-2.52,2.51ZM42.69,161.27l-10.89-12.79c.33.07.65.09.97.06l12.01,9.88c-.64,1.02-1.34,1.96-2.08,2.85ZM46.22,155.84c-.38.77-.79,1.51-1.22,2.22l-11.7-9.62c.32-.09.61-.22.89-.41l12.43,6.91c-.13.3-.26.6-.4.9ZM46.8,154.55l-12.24-6.8c.1-.09.19-.18.29-.29l2.13.11,11,3.68c-.32,1.11-.71,2.21-1.17,3.3ZM48.08,150.84l-9.53-3.19,10.13.53c-.15.89-.36,1.77-.6,2.66ZM42.59,146.72l.71-.07,1.23.17-1.95-.1ZM48.85,146.98l-3.7-.51,3.79-.35c-.03.29-.06.57-.09.86ZM35.82,145.01c.01-.1,0-.19.01-.29l13.21-1.25h.02c0,.1,0,.2,0,.3l-13.24,1.24ZM54.84,147.36c.03-.37.05-.73.07-1.1.24.41.5.79.8,1.14l-.88-.05ZM54.86,137.12c-.19.4-.35.8-.5,1.21-.22-1.13-.5-2.25-.84-3.35l3.22-.54c-.73.75-1.38,1.64-1.89,2.68ZM53.15,133.86c-.74-2.11-1.71-4.11-2.88-5.98l5.22-5.32,3.14,10.38-5.47.92ZM65.41,132.7c-1.11-.62-2.32-.86-3.52-.77l-3.63-12,15.23-3.28c-.29,3.09-.91,5.55-1.27,6.97-.56,2.23-4.56,7.35-3.56,8.9.33.51,1.28,1.1,2.56,1.71l-2.93,1.63c-.63-1.33-1.6-2.45-2.88-3.16ZM75.9,136.37s-4.28,3.25-6.94,5.24c.12-.68.19-1.35.17-2.01l6.47-3.6c.71.25,1.44.5,2.16.74l-1.87-.36ZM97.86,34.95c3.04-1.04,9.35-1.78,9.35-1.78,0,0,.22,5.19.57,6.08s-1.98,6.08-2.2,8.31c-.22,2.23.22,9.05,2.2,14.25,1.98,5.19,4.11,10.17,4.11,10.17l-.74.07s0,.96.52,1.71c.39.56.36,2.24.51,3.92l-3.67-3.63-1.54-7.1c0-.36-.05-.71-.13-1.05-.3-1.26-.44-1.26-.44-3.41s-1.85-3.71-3.26-4.01c-1.41-.3-2.6-1.34-3.49-4.01-.89-2.67-1.71-3.49-1.71-3.49l-.37.44c-.96-1.41-3.26-14.84-3.26-14.84,0,0,.52-.59,3.56-1.63ZM87.25,103.14c.11-3.9,1.22-10.68,4.45-15.97,3.23-5.28.56-9.96-1.78-14.53s-1.26-23.96-1.26-23.96l3.93,4.97s-.3.59,0,1.48,1.34,2.37,2.45,4.45c1.11,2.08,1.78,2.75,3.26,4.15,1.48,1.41-.45,1.93,1.48,2.97s2.23-.07,2.23-.07c.37,1.19-.07,2.23-.07,3.41s.59,2,1.78.15c0,0-.89,2.52.3,2.6.71.04,1.18-.48,1.58-1.19l5,22.98c-1.29,1.21-3.18,3.04-3.23,3.41-.11.93.85,2.6,1.27,3.29l.57,4.04-22.76,4.9c.43-3.03.77-5.75.81-7.09ZM84.58,123.62c-.06-.57.63-4.98,1.32-9.64l23.8-5.12.51,3.66-24.86,13.85c-.43-1.21-.73-2.3-.77-2.75ZM98.02,136.97c-.22-.45-.65-.88-1.32-1.22-2.78-1.45-7.46-3.67-8.9-4.79-.32-.24-.64-.69-.96-1.23l23.91-13.32.1.73c-.69.37-1.4,1.12-1.65,2.64-.24,1.41-.16,2.82.08,4.48-4.57,2.83-8.5,7.06-11.15,12.48-.04.08-.07.15-.1.23ZM115.54,144.31c-.21-.69-.4-1.42-.59-2.17l4.8,5.64-4.22-3.47ZM119.53,148.14l-.74-.41c-.15-.23-.32-.43-.5-.61l1.25,1.02ZM117.96,146.85c-.33-.23-.68-.39-1.06-.41-.13,0-.24.02-.36.04l-.28-.16c-.16-.39-.32-.81-.47-1.26l2.18,1.79ZM114.74,141.24c-.33-1.46-.61-2.91-.83-4.17l6.12,10.39-5.3-6.22ZM114.22,147.26c.18.39.35.75.54,1.07l-13.5-1.85c.22-1.09.53-2.18.89-3.26l12.07,4.04ZM102.28,142.82c.36-1.03.76-2.06,1.26-3.07,0,0,0,0,0-.01l9.91,5.51c.18.54.35,1.04.54,1.49l-11.71-3.92ZM114.74,148.75c-.02.16-.02.33-.01.51,0,.11.03.22.05.33l-14,.72c.07-1.14.19-2.28.4-3.42l13.57,1.85ZM113.72,135.9c-.09-.55-.17-1.04-.23-1.43-.31-1.94-.62-3.62-.9-5.07.27-.18.55-.34.82-.5l6.96,18.29-6.66-11.3ZM112.68,142.51c.19.78.39,1.5.59,2.15l-9.53-5.3c.51-1,1.07-1.94,1.67-2.84l7.27,5.98ZM105.65,136.17c.63-.91,1.32-1.77,2.04-2.57l4.14,4.86c.23,1.23.46,2.35.7,3.37l-6.87-5.66ZM107.98,133.29c.76-.81,1.55-1.57,2.38-2.25l.26.45c.17.94.35,1.93.52,3.04.18,1.1.35,2.13.52,3.11l-3.69-4.34ZM100.75,150.74l14.11-.73c.07.27.17.52.29.76l-14.33,3.47c-.1-1.16-.12-2.33-.07-3.51ZM100.86,154.67l14.5-3.51c.14.22.3.42.49.59l-14.4,6.45c-.28-1.15-.46-2.33-.59-3.53ZM102.75,162.04c-.48-1.1-.87-2.25-1.18-3.43l14.65-6.57c.21.14.43.24.66.31l-14.13,9.69ZM102.91,162.44l14.64-10.04c.63-.06,1.16-.43,1.5-1.03h0s.14.02.14.02l-14.49,14.24c-.68-1.01-1.29-2.07-1.79-3.19ZM104.94,166l14.76-14.51h.04s-12.43,17.32-12.43,17.32c-.87-.87-1.67-1.8-2.37-2.81ZM107.61,169.11l12.55-17.48-9.67,19.75c-1.04-.67-2-1.43-2.88-2.27ZM111.57,172.06c-.25-.14-.47-.3-.71-.45l9.67-19.75-6.39,21.36c-.87-.32-1.73-.69-2.57-1.16ZM114.54,173.35l6.39-21.36-2.85,22.22c-1.19-.16-2.37-.46-3.54-.86ZM118.49,174.26l2.85-22.2.78,22.28c-1.21.09-2.42.06-3.63-.08ZM121.58,146.61s.02.05.03.08l-.02.16v-.25ZM122.54,174.29l-.78-22.26,4.34,21.59c-1.17.34-2.37.55-3.56.67ZM126.51,173.48l-4.18-20.83c.07.08.14.15.22.22l7.34,19.27c-1.09.55-2.22.99-3.37,1.34ZM130.25,171.94l-7.09-18.63c.13.07.27.1.41.14l9.75,16.54c-.99.74-2.01,1.39-3.07,1.95ZM133.66,169.74l-9.56-16.23c.16,0,.32-.03.47-.08l11.78,13.84c-.85.89-1.75,1.73-2.69,2.47ZM136.65,166.97l-11.68-13.73c.14-.09.27-.19.38-.32l13.58,11.18c-.71,1.02-1.47,1.98-2.28,2.86ZM141.02,160.59c-.55,1.12-1.18,2.17-1.85,3.17l-13.56-11.16c.09-.14.17-.3.23-.46l15.18,8.44s0,0,0,.01ZM141.2,160.18l-15.22-8.46c.04-.16.07-.33.08-.51l16.49,5.51c-.37,1.17-.81,2.32-1.35,3.46ZM142.68,156.33l-16.61-5.56s0-.05,0-.07c0-.14-.05-.27-.07-.41l17.51,2.39c-.19,1.22-.46,2.44-.82,3.65ZM143.56,152.26l-17.65-2.41c-.04-.14-.11-.27-.16-.41l18.1-.93c0,1.24-.11,2.5-.29,3.75ZM143.84,148.09l-18.26.94c-.06-.11-.14-.2-.21-.3l18.19-4.41c.19,1.23.27,2.5.29,3.77ZM143.47,143.9l-18.38,4.46c-.07-.08-.15-.13-.23-.2l17.69-7.93c.39,1.19.7,2.41.91,3.67ZM142.43,139.83l-17.93,8.04s0,0-.01,0c-.02-.05-.05-.11-.07-.17l16.47-11.3c.6,1.1,1.12,2.24,1.54,3.44ZM140.69,136.01l-16.44,11.28c-.03-.06-.05-.13-.08-.2l14.39-14.14c.79.95,1.51,1.97,2.13,3.06ZM135.63,130.09c.96.77,1.85,1.61,2.66,2.54l-14.29,14.04c-.03-.09-.06-.16-.1-.25l11.72-16.33ZM133,128.28c.82.45,1.57.98,2.3,1.54l-11.56,16.1c-.04-.12-.09-.24-.13-.37l8.63-17.64c.25.12.5.23.75.37ZM131.87,127.73l-8.44,17.24c-.07-.22-.13-.43-.2-.67l5.31-17.77c1.13.29,2.24.68,3.32,1.2ZM124.69,125.96c1.15.04,2.3.2,3.44.46l-5.12,17.11c-.13-.48-.26-.98-.38-1.52l2.06-16.05ZM124.27,125.95l-1.9,14.84c-.12-.55-.23-1.13-.35-1.75-.3-1.64-.59-3.12-.86-4.5l-.29-8.35c1.13-.18,2.27-.26,3.4-.24ZM120.44,126.27l.2,5.79c-.47-2.21-.9-4.05-1.29-5.58.36-.09.73-.15,1.09-.21ZM119.69,139.15c.45,2.44.93,4.4,1.42,6l.06,1.74-3.8-18.92c.66,2.71,1.43,6.32,2.32,11.18ZM116.79,127.28l3.96,19.72-6.97-18.32c.98-.55,1.99-1.01,3.01-1.4ZM112.48,119.09c.64-.1,1.61.41,2.25,1.19.17.2.38.56.65,1.16-1.33.42-2.63.96-3.89,1.59-.08-.94-.08-1.78.06-2.59.09-.57.33-1.26.94-1.35ZM114.77,93.59l-1.85-1.03s-.12.1-.33.27l-3.18-14.61,3.91,3.87c.42.82.99,1.47,1.78,1.76l.55.55-.88,9.2Z"/>
  </g>
</svg>