<?xml version="1.0" encoding="UTF-8"?>
<svg id="Layer_2" xmlns="http://www.w3.org/2000/svg" viewBox="0 0 190.99 236.4">
  <g id="Layer_1-2" data-name="Layer_1">
    <path fill="#f47427" d="M1.87,145.98c1.35,3.52,4.9,5.85,4.9,5.85,0,0,.68,1.15,1.22,1.96.54.81-.17,5.68,1.39,10.21s4.39,7.23,7.17,7.44c2.77.2,4.26-1.55,4.26-1.55,0,0,.34-.07,1.22-.2.88-.13,1.42-1.96,1.42-1.96,0,0,2.1-1.22,3.11-1.82,1.01-.61,1.22-1.96,1.22-1.96,0,0,2.1-1.01,2.1-2.03v-1.69l.41-.2,1.08.34s3.24-.47,4.06-.68c.81-.2,4.53-5,4.53-5l.68-.13c.68-.13,2.28-1.89,2.28-1.89,0,0,7.39-3.79,11.04-5.34,3.65-1.55,24.54-9.08,24.54-9.08,0,0,1.22,0,1.77-.1.56-.1,4.41-.86,4.41-.86,0,0,2.59.86,3.04,1.07s3.9,2.69,5.63,3.4,11.31,4.16,11.31,4.16c0,0,2.03,2.03,3.6,2.84s9.28,3.3,9.28,3.3c0,0-.86,2.64-1.77,6.44-.91,3.8-1.42,9.13-1.93,11.61s-3.55,14.17-3.55,14.17c0,0-.2.43-.38.84s-.58,1.32-.91,1.8-6.08,3.88-7.28,4.46c-1.19.58-.96,1.42-.89,2.41.08.99-.13,3.04-.13,3.04,0,0-17.6,4.72-22.72,6.79-5.12,2.08-21.6,7.81-25.4,7.86-3.8.05-8.32,1.17-9.28,3.75-.96,2.59-.51,7.45,5.73,11.31,6.24,3.85,11.86,3.65,16.23,3.35,2.82-.2,6.29-1.18,9.06-2.02l.62.84c-.72.88-1,2.01-.62,3.03.05.13.11.26.17.38l1.08,2.33c.61,1.67,2.7,2.44,4.67,1.73,1.97-.72,3.07-2.65,2.47-4.32-.05-.13-.11-.25-.17-.37l-1.15-2.5h0c-.48-1.1-1.63-1.76-2.93-1.82l.03-.54c5.72-1.64,56.2-16.86,56.2-16.86,0,0,1.74-.35,4.32-.94.46.33.89.68,1.28,1.03-.51.81-.67,1.76-.35,2.64.05.13.11.26.17.38l1.08,2.33c.61,1.67,2.7,2.44,4.67,1.73,1.97-.72,3.07-2.65,2.47-4.32-.05-.13-.11-.25-.17-.37l-1.15-2.5h0c-.55-1.26-1.98-1.96-3.51-1.81l-.07-.17c6.12-1.56,13.7-3.84,16.57-6.16,5.12-4.16,9.58-10.6,8.92-15.82-.05-.44-.15-.85-.28-1.23,0,0,.02,0,.02.01,1.27.56,6.19-.41,6.19-.41,0,0,.51,1.17.96,1.57.46.41,1.22.56,5.68-1.57,4.46-2.13,9.02-5.38,9.48-5.88.46-.51-2.03-4.21-2.94-5.43-.91-1.22-2.99-1.67-2.99-1.67-.56-1.27-2.64-1.77-2.64-1.77,0,0-2.28-3.3-3.19-4.46-.91-1.17-3.35-1.17-3.35-1.17l-.91-1.98-.2-1.17s.36-.3.81-.61,1.07-9.13,1.12-9.94c.05-.81-1.62-1.62-1.62-1.62l.3-3.19s.56-1.67,1.22-4.16c.66-2.48-2.03-6.24-2.59-7.81-.56-1.57-1.37-12.78-1.22-14.04.15-1.27-1.17-1.01-1.72-1.37s.36-.86,1.12-1.72-1.32-2.03-1.32-2.03c0,0-.71-1.88-.41-3.09s-1.52-1.82-1.27-2.28c.25-.46-2.43-3.55-4.51-5.63-2.08-2.08-4.16-1.67-5.93-1.52-1.77.15-3.04.05-4.36.15s-4.67,3.04-4.67,3.04c0,0-7.05-10.75-11.11-13.94-4.06-3.19-10.65-5.78-13.44-5.78s-3.35,1.12-4.56-1.47c-1.22-2.59-3.7-3.14-3.7-3.14,1.94-1.37,2.65-4.72-1.13-6.68-3.79-1.96-10.48-.61-10.48-.61,0,0-6.36-6.02-6.36-7.03s-2.37-5.27-2.37-5.27c0,0-1.83-3.31-3.92-5.27-2.1-1.96-5.27-7.1-5.27-7.1,0,0-.47-1.56-.81-2.43-.34-.88-1.89-2.7-1.89-2.7,0,0-.47-2.16-1.62-4.73-1.15-2.57-5.21-10.11-9.36-15.14-4.16-5.04-5.78-6.49-6.59-8.05-.81-1.56-1.69-1.39-1.96-1.69-.27-.3-.81-3.08-1.32-4.23s-2.81-4.79-2.81-4.79c0,0-.2-.91-.46-1.27-.25-.35-2.39-2.02-2.39-2.02l-1.21-1.02s-1.01-.02-1.32.2-.33.96-.33.96c0,0-.94-1.11-1.7-1.24-.76-.13-1.72.35-1.72.35l-.33,1.14s-.33-.38-.81-.51c-.48-.13-1.47.18-1.52.43s.1.86.1.86l-.94-1.17-1.47-1.01s-.81-.41-1.24-.41-1.77.61-1.77.61c0,0-.33.58-.08,1.09.25.51,1.22.81,1.29.84.08.02,2.18,2.81,2.18,2.81l1.49,2.61.78,2.5s-2.37-2.5-4.67-2.7c-2.3-.2-3.01.71-2.81,1.18.2.47,2.03,1.35,2.03,1.35,0,0,1.01,1.08,1.39,1.32.37.24,3.68,2.6,3.68,2.6,0,0,5.07,3.75,5.44,3.92.37.17,3.68,1.25,3.68,1.25l4.39,4.7s5.83,12.22,7.05,14.55c1.22,2.33,7.4,13.33,7.4,13.33,0,0,.1,2.99.15,4.11.05,1.12,2.54,7.45,2.54,7.45v.61l2.94,8.65.07,1.96s-2.7,2.57-3.11,3.31c-.41.74-2.47,6.22-2.47,6.22,0,0-.27,3.18.3,5.24.58,2.06,1.35,3.41,1.35,3.41l.2.3-.17.17s-.17,1.59.3,1.86c.47.27,2.07.63,2.07.63,0,0,.84,2.15,1.14,2.79s2.03,1.75,2.03,1.75c0,0,.84.71,1.14.81.3.1,1.7.61,1.7.61,0,0,.63.68.76.84.13.15,1.34,5.98,1.47,6.26s.76.63,1.37.66c.61.03,1.34-.33,1.34-.33,0,0,.13.84.23,1.04.1.2,1.65.25,1.65.25.86,1.52,3.02,1.12,3.02,1.12,0,0,1.47,2.59,1.72,2.89s.71.51,1.22.81c.51.3,4.87,3.96,4.87,3.96l-10.09-3.85-5.12-.35s-6.85-1.98-8.37-2.43c-1.52-.46-3.19-.3-3.19-.3l-3.7-.71s-2.43.2-3.65.71-4.41,3.85-4.41,3.85c0,0-1.57.96-2.48,1.77-.91.81-.61,1.93-.61,1.93,0,0-1.98,2.74-3.24,2.79-1.27.05-4.36,1.47-4.56,1.77s-13.64,8.26-13.64,8.26c0,0-9.23,3.14-10.19,3.7-.96.56-3.6,2.59-3.6,2.59,0,0-1.83.1-2.33.61-.51.51-1.77.71-1.77.71,0,0-1.72-.3-2.89-1.01-1.17-.71-8.92-10.19-8.92-10.19,0,0,0-1.77-.76-2.54-.76-.76-2.89-2.94-4.61-2.84-1.72.1-4.67,1.77-6.14,6.24-1.47,4.46-.12,12.4,1.23,15.92ZM118.27,191.36c.76-.91.91-3.7.91-3.7,0,0,1.22-2.43,2.23-5.02,1.01-2.59,6.08-14.45,6.64-16.18.56-1.72,1.07-8.21,1.07-8.21l.76-4.36s2.18-.05,3.35-.25c1.17-.2,7-2.18,7.35-2.28.36-.1,8.11-.51,9.03-.66s8.67-4.16,8.67-4.16c0,0,1.22,1.12,1.32,1.52.1.41-.96,3.19-.96,3.19,0,0,.15,3.75.2,3.9.05.15.1,2.28.2,2.54.1.25,5.73,2.79,5.73,2.79,0,0-.36,1.82-.36,2.89s.05,3.7.05,3.85-.1,2.54.1,4.01c.2,1.47,1.22,4.72,1.42,6.13.2,1.42,1.01,3.09,1.01,3.09,0,0,.1.94.36,1.92-2.21-2.45-6.32-3.02-9.39-2.28-4.16,1.01-8.77,2.99-14.7,5.07-5.93,2.08-25,6.19-25,6.19Z"/>
  </g>
</svg>