<?xml version="1.0" encoding="UTF-8"?>
<svg id="Layer_2" xmlns="http://www.w3.org/2000/svg" viewBox="0 0 267.77 172.31">
  <defs>
    <style>
      .cls-1 {
        fill: #f47427;
      }
    </style>
  </defs>
  <g id="Layer_1-2" data-name="Layer_1">
    <path class="cls-1" d="M13.91,105.89c3.4,3.92,7.63,7.73,15.41,11.56,5.26.21,11.08,5.15,11.08,5.15l52.59-1.44s4.09-2.16,8.52-2.43c5.01-1.95,8.39-.3,12.67.17,4.28.47,14.49,2.37,14.49,2.37l-2.04-3.85,9.33-3.93s-1.23-1.31-2.58-2.26c-3.36-.55-16.13-4.8-24.23-8.84-8.1-4.04-15.43-12.36-15.43-12.36,0,0-.89.59-3.27-1.7-4.8,2.21-9.79,1.21-9.79,1.21,0,0-5.08.15-5.44-3.73-.36-3.87,1.67-7.23,3.64-10.7,1.97-3.47,5.52-4.04,4.92-6.91-.6-2.87.11-8.45,1.17-11.84,1.06-3.39,5.02-8.36,8.29-6.95,3.27,1.41,4.01,5.61,1.89,13.57,1.31,3.4,1.95,9.25,1.95,9.25,0,0,2.6.1,6.76,3.35,3.93.81,5.33,3.66,5.33,3.66,0,0,26.61,15.37,35.18,17.24,5.98.98,6.74,4.93,8.87,5.65,2.12.72,3.53,2.78,3.53,2.78,0,0,44.76-17.27,48.22-18.75-2.67-2.29-6.07-7.69-8.08-11.63-2.01-3.94-18.5-35.14-19.43-37.04-.55-1.11.57-3.04,1.58-4.45-1.2-1.59-2.07-3.12-1.33-3.62.47-.32,1.19-.07,1.96.44l-1.32-2.57c-2.25-.11-2.4-1.95-2.4-1.95l1.31-.18-.11-.23c-.48-.06-1.08-.11-1.61-.11-1.11,0-1.94-1.64-.44-2.38-1.4-.78-.49-1.97-.49-1.97,0,0,1.87.16,3.88.34-1.9-1.24-2.41-3.28-2.87-4.03-.57-.93-6.37-6.74-4.78-7.81,1.59-1.07,5.91,4.29,5.91,4.29,0,0,.35-.3.82-2.09-.84-1.21-1.98-3.66-1.98-3.66,0,0-1.82-.2-3.32-.69-3.01.33-3.19-1.93-3.19-1.93l2.1-.29s-1.4-.23-2.51-.24c-1.11,0-1.94-1.64-.44-2.38-1.4-.78-.49-1.97-.49-1.97,0,0,7.49.63,8.63.84,1.14.21,3.42,3.32,4.63,4.73,1.21,1.41,2.27,2.96,2.93,4.48.5,1.15.89,1.57,2.57,4.56l.82-.69s6.22,7.25,11.14,13.07c4.93,5.82,12.64,19.7,15.68,24.09,3.05,4.39,1.88,10.71,5.58,14.33,3.7,3.63,5.8,7.3,5.8,7.3,0,0,4.04-3.76,3.88-5.59-.15-1.65,2.46-5.25,7.92-9.89v-.05c-.39-5.4,3.45-8.96,12.21-5.71,8.76,3.25,14.4,2.53,16.28,10.94,1.88,8.4,3.81,14.32-1.43,20.83s-4.46,26.64-15.39,29.37c-.35.09-.7.17-1.05.25-5.9,8.67-16.71,18.64-32.78,30.93-20.54,15.7-48.99,28.52-48.99,28.52l-5.68-7.66s-8.24-4.19-15.06-10.26c-4.95-1.1-21.7-7.58-29.06-10.88-7.37-3.3-13.69-3.28-18.07-2.01-4.38,1.27-30.22,4.71-38.55,4.25-8.33-.47-9.55-3.84-11.32-4.45-1.77-.6-5.04,2.63-7.05,3.32-2.01.7-3.96.62-5.07-2.51-1.62,4.18-5.89,5.7-5.89,5.7,0,0-.54,1.59-5.04,3.22-4.5,1.63-8.89-4.6-10.12-6.8-1.23-2.19-2.38-6.34-2.31-7.7.07-1.36-.61-6.92-4.2-7.95-3.6-1.03-9.49-12.11-8.67-21.5,1.18-9.27,10.43-5.13,13.83-1.21Z"/>
  </g>
</svg>