<?xml version="1.0" encoding="UTF-8"?>
<svg id="Layer_2" xmlns="http://www.w3.org/2000/svg" viewBox="0 0 245.62 167.96">
  <defs>
    <style>
      .cls-1 {
        fill: #f47427;
      }
    </style>
  </defs>
  <g id="Layer_1-2" data-name="Layer_1">
    <path class="cls-1" d="M243.06,126.11c-1.95-.9-6.9,1.81-10.05,7.77-1.55,2.07-5.35,3.76-7.25,5.23-1.24.96-2.23,2.05-3.67,2.41-.1-.57-.22-1.14-.36-1.68-6.15.17-17.94,3.08-29.39,2.05-11.45-1.02-21.7-1.88-32.63-2.9-10.93-1.02-32.29,2.73-45.62-4.1,2.39-3.08,24.26-17.09,30.93-21.53,6.66-4.44,12.3-5.81,19.99-10.77,7.69-4.95,29.73-17.77,33.15-19.56,3.42-1.8,8.46-5.89,13.92-10.25,5.55.26,11.11-2.22,11.11-2.22,0,0,3.07-1.02,2.56-4.1-.51-3.07-1.37-7.69-3.33-8.37-1.96-.68-2.48-3.59-.77-4.36,1.71-.77,2.73-4.53.6-9.74-2.14-5.21-6.24-10.25-8.37-10.08-2.13.17-5.12,4.95-4.96,11.7-.34,2.56-2.82,5.89-3.76,8.12-.94,2.22-1.2,4.44-4.61,5.13-3.42.68-8.2,5.12-9.74,5.12s-22.04,15.04-27.85,17.43c-5.81,2.39-11.79,6.66-14.52,7.35-2.73.68-11.28,5.13-23.07,8.37-11.79,3.25-33.66,12.13-33.66,12.13-6.49-4.1-28.36-12.13-28.36-12.13,0,0,8.54-4.61,17.43-7.52s18.62-8.54,29.56-11.11c10.93-2.56,16.4-8.54,16.4-8.54,0,0,4.27-2.22,7.52-2.73,8.03,1.54,9.4-.51,9.4-.51,0,0,4.1-.68,6.32-1.02,2.22-.34,5.13-2.39,3.25-2.73-1.88-.34-8.54,0-8.54,0v-.86c2.05,0,3.93-1.19,3.93-1.19,0,0,4.78-.17,6.49,2.39,1.02,2.56,4.1,2.39,4.1,2.39l-.85-2.39s2.05,1.2,2.56.34c-3.08-4.95-6.49-7.86-6.49-7.86,0,0-6.66-.51-12.47.51-5.81,1.03-13.84,2.57-13.84,2.57,0,0-20.27.23-32.58,4.33-12.3,4.1-30.3,11.16-39.64,11.16s-13.9,1.36-13.9,1.36c0,0,0-1.14,2.28-6.6,2.28-5.47,5.24-29.22,5.24-29.22,0,0-.85-4.36.26-7.26,1.11-2.9,4.78-7.26,7.6-8.2,2.82-.94,5.12-5.3,5.12-5.3,0,0,8.2-8.03,5.13-9.4-3.07-1.36-8.54,5.89-8.54,5.89,0,0-1.45.17-1.37-2.05,1.62-1.2,1.79-3.76,1.79-3.76,0,0,3.59-4.44,8.63-4.27,6.07,1.54,5.64-1.2,5.64-1.2l-3.08-1.28c2.48-.68.68-3.08.68-3.08,0,0-6.49,1.2-8.71,1.8-2.22.6-2.65.85-8.37,6.06-4.61,2.22-10.59,13.58-10.59,13.58,0,0-3.25,5.98-6.66,10.59-3.42,4.61-10.08,16.06-10.08,16.06,0,0-12.99-3.76-18.62,4.78C2.84,54.59.11,62.79,1.47,70.82c1.37,8.03,10.25,13.5,10.25,13.5,0,0-13.84,11.79-11.45,22.73,2.39,10.93,22.21,18.11,28.02,22.21,5.81,4.1,20.5,17.43,26.83,20.5,6.32,3.08,17.6,14.86,23.24,17.43,5.64,2.56,10.25-2.05,10.25-2.05,16.75,4.27,52.8-2.05,59.12-3.42,6.32-1.37,10.25.17,13.33,1.02,3.08.85,13.5-.51,20.85-1.2s17.77-1.88,25.29-1.2c7.52.68,14.69-.17,14.69-.17,0,0,.1-.64.22-1.72,4.69,2.64,11.11,4.16,11.11,4.16,0,0,3.18.61,4.24-2.32,1.06-2.93,2.58-7.37,1.2-8.93-1.38-1.56-.4-4.34,1.46-4.17,1.87.17,4.6-2.61,5.29-8.2.7-5.59-.41-11.99-2.35-12.89Z"/>
  </g>
</svg>