<?xml version="1.0" encoding="UTF-8"?>
<svg id="Layer_2" xmlns="http://www.w3.org/2000/svg" viewBox="0 0 176.94 197.36">
  <defs>
    <style>
      .cls-1 {
        fill: #f47427;
      }
    </style>
  </defs>
  <g id="Layer_1-2" data-name="Layer_1">
    <path class="cls-1" d="M171.68,50.26c-4.56-.56-7.35-.78-11.91.22-4.56,1-6.34-.22-11.58-.56-5.23-.33-8.68-1-14.69-.33s-10.8,1.78-14.58,2.23c-3.78.44-7.23-4.79-7.23-4.79,0,0-10.68-14.36-21.92-15.36-1.89-3.45-5.79-3.67-8.12-5.45-2.34-1.78-3.34-5.01-6.12-6.79-2.78-1.78-16.03-12.58-24.71-11.91s-16.36,5.9-16.36,5.9c0,0-3.12-2.37-4.75-3.41-1.63-1.04-2.82-2.82-2.82-2.82v-3.12S18.87-1.12,10.71.22C2.55,1.56-1.16,12.54.32,19.21c1.48,6.68,9.5,10.54,9.5,10.54l3.41-2.82s1.56,1.34,3.64,1.93c2.08.59,6.45.07,7.49.3-.15,3.64-1.04,11.43,1.63,15.36,2.67,3.93,7.42,13.5,8.46,15.58l1.93.59.85,3.82s2.11,10.02,1.56,13.69c-.56,3.67-1.56,4.67-2.67,5.45-.37.26-.76.94-1.07,1.77-1.56.06-2.5.09-2.71.08l-.12,1.15-.37,1.1c.16.05.29.1,2.68.01-.08,1.06.09,2.05.69,2.56,1.56,1.34,2.19.63,2.19.63,2.37.59,3.34-.67,3.34-.67,2.52.52,3.27-.37,3.27-.37,1.86.3,2.45.22,2.6-.82.07-.48.03-1.21.03-1.88.4-.02.82-.04,1.24-.06,1.2-.07,2.37.48,3.1,1.44l10.41,13.54c1.44,1.87,3.66,2.93,5.96,2.93.51,0,1.02-.06,1.53-.17.09.44.17.77.23.9.17.38,2.98.31,4.29.26.41-.02.8.19,1.02.54l1.46,2.33c.13.2.31.35.52.45l.88,4.45-32.67,1.3-2.53-12.01c.14-.04.22-.06.22-.06,2.47-.55,2.63-.74,5.19-2.76,2.56-2.02,2.39-4.88-.85-3.7s-6.92,1.41-10.71,1.26c-3.8-.15-5.6,0-6.28,2.08s2.31,3.56,5.22,3.97c1.14.16,2.53.06,3.8-.12l3.13,14.85-3.12,4.05c-1.19-1.8-2.47-3.46-3.83-4.91-5.08-5.42-10.67-7.65-15.76-6.3-10.11,2.7-14.3,18.74-9.55,36.51,4.3,16.07,14.22,27.26,23.55,27.26.99,0,1.97-.13,2.94-.38,3.25-.87,5.94-3.12,7.9-6.51l.76.94c.2.24.51.35.82.29l7.83-1.71c.64-.14.87-.93.41-1.39l-2.2-2.2h.76v-5.51c.33.01.67-.01.99-.1,3.28-.88,4.61-6.55,2.98-12.67-.16-.59-.34-1.16-.54-1.71l23.71-19.68.66,3.31c-.29.2-.57.42-.8.7-1.08,1.27-1.5,3.36-1.28,6.18-4.04,2.24-7.12,6.49-8.84,12.31-2.03,6.87-1.93,15.21.28,23.49,2.21,8.27,6.29,15.55,11.48,20.49,4.32,4.12,9.03,6.26,13.57,6.26,1.23,0,2.46-.16,3.66-.48,5.62-1.5,9.89-6.34,12.05-13.61,2.03-6.87,1.93-15.21-.28-23.49-2.21-8.27-6.29-15.55-11.48-20.49-2.74-2.61-5.63-4.43-8.54-5.41-1.57-4.05-3.62-6.14-6.38-6.56l-3.67-18.47c.34-.25.54-.67.47-1.12l-.6-3.55c-.03-.18-.1-.34-.2-.49l-1.48-2.03c1.31-1.25,2.16-2.96,2.3-4.86l1.45-20.12c.14.14.29.28.43.41,4.75,4.6,20.92,14.06,20.92,14.06-2.97,2.86.59,8.94,5.34,10.42,4.75,1.48,14.77-.56,19.11,0s6.68-.67,7.46-3.9c.78-3.23-1.56-5.23-4.67-6.9-3.12-1.67-2.23-3.67-4.9-4.23-2.67-.56-2.78,0-5.01-1.56-2.23-1.56-2.56-1.78-5.12-3.56s-4.34-3.67-6.79-4.12c-2.45-.44-8.9-11.91-10.35-14.25,2.89-1.45,2,.89,7.79,2.34,5.79,1.45,10.24,1.89,12.02.44s10.57-1.89,16.58-2.23,11.69-1.11,15.58-.89c1.31.07,2.29.11,3.18.18-.05.8.17,1.52.67,2.16,1.86,2.37,4.02,4.75,10.17,2.67,4.03-1.36,8.26-5.15,8.27-5.17,2.01-.6,3.65-1.38,4.19-3.29.89-3.12-.44-8.46-5.01-9.02ZM78.84,139.87c.42,2.12,1.01,4.9,1.64,7.87l-3.29-6.29c.51-.6,1.07-1.11,1.64-1.58ZM76.93,141.79l3.86,7.38c.31,1.45.63,2.92.94,4.36l-6.34-9.38c.47-.87.99-1.66,1.55-2.36ZM88.14,161.52l-5.08-12.84c-.85-3.94-1.64-7.69-2.12-10.15.21-.1.43-.16.64-.24l6.55,23.23ZM81.95,138.16c.16-.05.31-.13.47-.17.64-.17,1.29-.25,1.95-.29l4.15,23.74-6.57-23.28ZM86.75,162.71c-.26-.42-.54-.73-.83-.91-.02-.11-.05-.21-.07-.32l1.63,1.85-.73-.62ZM87.24,163.64h-.04s-.02-.03-.02-.05l.06.05ZM85.67,160.68c-.07-.3-.13-.6-.2-.92l2.02,2.98-1.82-2.06ZM85.24,158.73c-.12-.57-.25-1.15-.39-1.76l2.74,5.24-2.35-3.48ZM84.54,155.51c-.32-1.44-.64-2.96-.97-4.48l4.25,10.76-3.28-6.28ZM75.17,144.53l6.78,10.03c.19.86.37,1.71.55,2.52l-8.52-9.68c.35-1.02.74-2,1.18-2.87ZM73.64,148.42c.06-.21.14-.39.2-.6l8.83,10.04c.13.59.26,1.17.38,1.72l-10.05-8.49c.18-.91.38-1.81.64-2.68ZM72.92,151.55l10.27,8.67c.1.47.2.92.3,1.34l-11.01-6.36c.08-1.25.24-2.47.45-3.65ZM72.43,155.63l11.17,6.44c.09.41.18.8.25,1.15l-11.42-3.62c-.06-1.35-.07-2.68,0-3.98ZM72.45,160.03l11.5,3.64s.02.1.03.14c-.03.29-.04.6-.04.92l-11.07-.52c-.21-1.41-.35-2.81-.42-4.18ZM72.94,164.61l11.01.52c.02.34.05.68.11,1.04,0,.05.02.1.03.15l-10.26,2.57c-.37-1.43-.66-2.86-.89-4.28ZM73.95,169.39s-.02-.08-.03-.13l10.25-2.57c.09.43.21.83.34,1.2l-9.25,5.59c-.49-1.33-.94-2.69-1.31-4.1ZM75.4,173.87l9.26-5.6c.17.4.37.74.57,1.03l-8.1,8.6c-.63-1.29-1.21-2.63-1.73-4.02ZM77.33,178.26l8.15-8.66c.26.28.54.45.81.5l-6.88,11.84c-.75-1.16-1.44-2.4-2.08-3.68ZM79.66,182.3l7.12-12.25c.46-.2.79-.8.96-1.65l.51-.87.12-.03-6.32,17.96c-.83-.98-1.63-2.03-2.38-3.16ZM84.14,187.72c-.62-.6-1.23-1.24-1.81-1.91l6.4-18.18-3.83,20.75c-.25-.22-.5-.42-.75-.66ZM85.23,188.68l3.8-20.55-1.14,22.49c-.89-.54-1.78-1.19-2.66-1.94ZM88.28,190.83l1.12-22.29,1.56,23.52c-.89-.3-1.79-.72-2.68-1.23ZM91.36,192.18l-1.55-23.35,4.17,23.85c-.86-.05-1.74-.23-2.62-.49ZM93.45,161.91l-.98.27.99-1.05c0,.05.02.1.03.15-.02.2-.04.41-.05.63ZM94.21,165.8c.15.33.31.62.48.87l-1.66-.53,1.18-.34ZM91.74,162.38l-.61.17,1.98-3.41c.1.53.19,1.03.27,1.5l-1.64,1.74ZM90.59,162.71l-.15.04,2.19-6.21c.13.71.26,1.38.37,2.02l-2.41,4.15ZM90.02,162.75l1.87-10.11c.2,1.07.4,2.12.59,3.12l-2.46,6.99ZM94.38,192.67l-4.15-23.74,6.62,23.47c-.8.2-1.63.28-2.48.27ZM97.23,192.29l-6.61-23.43,8.86,22.42c-.71.44-1.46.78-2.25,1.02ZM99.82,191.07l-8.89-22.49,10.85,20.77c-.61.66-1.26,1.25-1.96,1.72ZM102.07,189.05l-10.92-20.9,12.56,18.57c-.5.86-1.04,1.64-1.64,2.33ZM103.92,186.35l-12.66-18.72,13.96,15.86c-.38,1.03-.82,1.98-1.3,2.86ZM105.75,181.94c-.11.39-.25.75-.38,1.12l-14.1-16.02,15.04,12.69c-.16.76-.34,1.49-.55,2.21ZM106.39,179.29l-15.01-12.67.06-.02,15.44,8.91c-.1,1.29-.26,2.56-.5,3.77ZM106.92,175.09l-14.96-8.63.4-.12,2.85.9c.29.24.6.38.89.33.02,0,.04-.02.06-.03l10.8,3.42c.06,1.4.05,2.78-.04,4.12ZM106.95,170.55l-10.34-3.28c.31-.31.54-.84.66-1.52l9.25.44c.22,1.47.36,2.92.43,4.36ZM106.45,165.79l-9.12-.43c.07-.59.06-1.26-.03-1.96l8.23-2.07c.39,1.49.69,2.98.93,4.46ZM105.43,160.95l-8.18,2.05c-.12-.75-.32-1.43-.57-2.01l7.33-4.43c.53,1.42,1.02,2.88,1.42,4.39ZM103.87,156.19l-7.35,4.44c-.3-.62-.66-1.1-1.03-1.36-.02-.08-.03-.17-.05-.25l6.58-6.98c.67,1.33,1.29,2.71,1.85,4.15ZM101.84,151.67l-6.47,6.87c-.14-.77-.29-1.6-.46-2.48l4.72-8.13c.79,1.18,1.52,2.43,2.21,3.74ZM99.38,147.58l-4.59,7.89c-.2-1.06-.41-2.17-.63-3.32l2.74-7.78c.87.98,1.69,2.07,2.48,3.2ZM95.25,142.65c.46.44.91.92,1.36,1.41l-2.58,7.33c-.32-1.65-.65-3.33-.98-4.98l.91-4.91c.43.36.87.74,1.3,1.15ZM93.6,141.23l-.77,4.15c-.41-2.01-.82-3.91-1.2-5.55.66.41,1.31.87,1.97,1.39ZM91.69,151.58l-1.97,10.66.83-16.42c.38,1.87.77,3.84,1.14,5.76ZM88.91,138.47c.4,1.56.85,3.59,1.32,5.83l-.89,17.53-1.57-23.73c.38.1.76.22,1.14.37ZM87.38,137.98l1.56,23.57-4.17-23.87s.06,0,.09,0c.83,0,1.67.11,2.52.31ZM81.07,130.13c.21-.25.58-.57,1.4-.57,1.47,0,3.09.54,4.62,3.64-1.98-.3-3.95-.21-5.87.3-.32.08-.63.18-.93.29-.04-1.7.22-2.99.78-3.66ZM42.43,121.64l.13.6-1.96,3.63c-.2-.36-.4-.73-.61-1.08l2.43-3.16ZM35.48,140.55s-.04-.09-.06-.13l.58-1.08,4.86-.59c.08.27.17.54.24.81,0,0,0,0,0,.01l-4.59,1.15-1.03-.17ZM39.13,143.52l-3-.14c0-.12-.02-.24-.04-.37l3.04.51ZM33.94,138.26c-.3-.27-.61-.47-.93-.58l2.9-3.07-1.97,3.66ZM39.87,147.28l2.79.88c.12,1.23.17,2.43.2,3.61l-7.99-4.61,5.01.12ZM41.27,147.32l1.3.03c.02.13.04.27.05.4l-1.35-.43ZM36.05,144.87c.06-.34.09-.71.09-1.09l5.94.28c.06.32.13.64.18.96l-6.2-.14ZM37.47,140.89l3.72-.93c.14.54.27,1.08.39,1.62l-4.11-.69ZM40.69,138.19l-4.36.53.49-.92,3.14-1.9c.26.75.5,1.51.73,2.29ZM39.11,133.57c.26.64.49,1.3.73,1.96l-2.64,1.6,1.91-3.56ZM37.93,130.85l-1.3,2.41-4.05,4.3c-.18-.02-.35,0-.52.04-.69.18-1.17.86-1.4,1.81l-.73.09,3.84-6.6,3.16-4.1c.35.66.69,1.35,1.01,2.05ZM28.51,149.73l-.33-.12-.17-2.61h.02s.48,2.73.48,2.73ZM28.21,140.74l.08-.46h.08s-.16.46-.16.46ZM28.43,147.02h.01l.85,3-.35-.13-.5-2.87ZM28.81,140.22l.26-.03-.64,1.1.37-1.06ZM28.54,139.66l.08-.1-.03.1h-.05ZM29.28,141.06c-.1.03-.21.05-.31.08l.59-1.02.68-.08-.96,1.02ZM30.51,140.33c-.01.13,0,.28,0,.41-.16.04-.33.09-.51.13l.52-.55ZM29.44,139.56l-.41.05.36-1.04,2.53-3.28-2.48,4.27ZM28.85,147.03h.02s1.31,3.31,1.31,3.31l-.44-.16-.89-3.15ZM29.3,147.04h.06s1.93,3.69,1.93,3.69l-.61-.22-1.37-3.47ZM29.8,147.05h.14s2.86,4.23,2.86,4.23l-.97-.35-2.03-3.88ZM30.42,147.06h.3s4.45,5.06,4.45,5.06l-1.75-.63-3-4.43ZM31.26,147.08h.64s7.94,6.71,7.94,6.71l-3.9-1.4-4.68-5.32ZM35.67,126.6l-3.82,4.96,2.47-7.02c.46.66.91,1.35,1.35,2.07ZM34.05,124.15l-2.96,8.4-1.8,2.34,2.5-13.54c.78.86,1.53,1.8,2.25,2.8ZM31.46,120.97s0,0,0,0l-2.7,14.6-.67.87.9-17.77c.82.66,1.65,1.42,2.47,2.3ZM28.61,118.38l-.94,18.6-.3.4-1.37-20.62c.86.41,1.73.96,2.61,1.62ZM27.78,149.47l-.34-.12.12-2.36h.05s.16,2.48.16,2.48ZM27.17,146.99l-.11,2.23-.39-.14.39-2.09h.12ZM25.6,116.56l1.41,21.28-.15.19-3.88-22.22c.85.11,1.73.35,2.62.74ZM20.3,115.98c.57-.15,1.15-.23,1.75-.23.17,0,.35.03.52.04l3.96,22.67-.08.1-6.35-22.52c.06-.02.13-.05.19-.06ZM26.33,148.74l-.04.2-.07-.03c.04-.05.07-.12.11-.17ZM19.73,116.16l6.43,22.78-.04.05-8.53-21.59c.66-.54,1.38-.97,2.15-1.25ZM17.27,117.68l8.57,21.68-.03.04-10.27-19.65c.52-.8,1.1-1.49,1.73-2.07ZM15.3,120.13l10.25,19.61-.04.05-11.49-16.99c.37-.98.8-1.87,1.28-2.67ZM13.85,123.26l11.37,16.81h-.12s-12.1-13.74-12.1-13.74c.23-1.09.52-2.12.86-3.07ZM12.9,126.81l11.73,13.33-.31.04-11.89-10.04c.11-1.16.26-2.27.47-3.33ZM12.39,130.62l11.2,9.46c-.26-.06-.51-.08-.75-.02-.05.01-.1.05-.15.07l-10.42-6.01c0-1.2.03-2.37.12-3.5ZM12.27,134.58l10.02,5.78c-.23.19-.42.44-.58.76l-9.23-2.93c-.12-1.23-.19-2.44-.21-3.61ZM12.52,138.61l9.04,2.87c-.13.36-.22.76-.26,1.2l-8.26-.39c-.22-1.24-.4-2.47-.52-3.68ZM13.11,142.69l8.18.38c-.01.46,0,.94.08,1.45l-7.44,1.87c-.32-1.24-.6-2.48-.83-3.7ZM14.04,146.79s0-.01,0-.02l7.42-1.86c.04.18.07.37.12.56.09.32.19.63.3.92l-6.71,4.06c-.41-1.19-.79-2.41-1.12-3.66ZM15.28,150.83l6.74-4.08c.21.47.44.9.7,1.27l-6.02,6.39c-.51-1.15-.98-2.35-1.42-3.59ZM16.88,154.8l6.1-6.47c.28.34.57.63.88.83l-5.27,9.07c-.6-1.09-1.17-2.24-1.71-3.43ZM20.8,161.8c-.69-.99-1.35-2.06-1.99-3.18l5.38-9.26c.31.15.62.2.92.18l-4.32,12.26ZM21.07,162.2l4.5-12.78s.1-.04.14-.07l.47.17-2.86,15.5c-.77-.86-1.52-1.8-2.25-2.82ZM23.66,165.38l2.91-15.73.47.17-.9,17.88c-.83-.67-1.66-1.45-2.47-2.32ZM26.5,167.99l.91-18.04.41.15,1.29,19.52c-.87-.42-1.75-.97-2.61-1.63ZM29.52,169.8l-1.3-19.55.4.14,3.52,20.15c-.86-.11-1.74-.36-2.62-.74ZM34.83,170.37c-.74.2-1.51.26-2.29.21l-3.5-20.04.43.15,5.53,19.61c-.06.02-.12.05-.18.07ZM35.38,170.17l-5.45-19.31.53.19,7.07,17.87c-.67.55-1.38.97-2.15,1.24ZM37.84,168.65l-6.89-17.42.73.26,7.88,15.09c-.52.81-1.1,1.5-1.73,2.07ZM40.75,164.38c-.29.66-.6,1.25-.94,1.81l-7.58-14.51,1.12.4,7.63,11.28c-.3.23-.41.65-.24,1.01ZM42.02,160.48c-.22.93-.48,1.78-.77,2.59l-7.28-10.76,1.99.71,6.15,6.99c-.03.15-.06.32-.09.47ZM42.21,159.52l-5.48-6.22,4.38,1.57,1.59,1.34c-.11,1.14-.28,2.24-.49,3.31ZM42.75,155.75l-.59-.5.61.22c0,.09,0,.19-.01.28ZM42.8,154.86l-1.91-.68-8.37-7.06,1.52.04,8.82,5.09c0,.89-.02,1.77-.07,2.62ZM41.9,128.38l1.41-2.61,2.46,11.69s-.08.08-.11.12l-.29.04c-.92-3.26-2.09-6.37-3.47-9.24ZM49.98,158.05v4.66l-.22-.22c-.18-.18-.43-.27-.68-.24l-2.8.35c.09-.35.19-.69.27-1.05.33-1.42.56-2.92.73-4.46l2.71.97ZM47.35,156.49c.03-.31.04-.62.07-.94.4.53.82,1,1.25,1.41l-1.31-.47ZM49.2,163.25l.79.66v.31l-4.5.84c.16-.43.31-.87.46-1.33l3.25-.49ZM52.17,166.23l-6.12,1.14-1.06-1.09s.02-.04.03-.06l6.07-.91,1.08.92ZM51.62,127.5l6.15-.92,1.08.92-6.12,1.14-1.11-1.14ZM59.66,128.64l1.08.92-6.12,1.14-1.11-1.14,6.15-.92ZM78.67,120.72l-24.46,20.3c-.47-.79-.98-1.49-1.52-2.1l.39-6.52.19.23c.2.24.51.35.82.29l7.83-1.71c.64-.14.87-.93.41-1.39l-3.99-3.99c-.18-.18-.43-.27-.68-.24l-7.69.95c-.64.08-.95.84-.54,1.34l1.5,1.85-.44,7.32c-.45-.25-.9-.43-1.35-.54l-3.78-17.92,32.63-1.3.68,3.44ZM78.03,96.62c-.09,1.21-.59,2.3-1.37,3.14-.28-.31-.71-.45-1.12-.35l-6.28,1.56c-.59.15-.96.72-.86,1.31.02.1.04.22.06.33-1.96.43-3.99-.31-5.21-1.9l-9.13-11.87,25.16-9.45-1.24,17.23ZM79.61,74.75l-.24,3.37-25.99,9.76-.54-.7c-.98-1.27-2.42-2.08-3.97-2.29.05-.09.09-.19.13-.32.37-1.26-1.86-2.37-2.74-3.56-.89-1.19-.67-4.38.22-8.9l.89-4.53s-.67-8.09-2.45-11.2c.59-4.38-.15-10.46-.15-10.46,0,0,6.01.22,8.31,1.56,2.3,1.34,4.08,6.9,5.42,9.57,1.34,2.67,10.35,1,10.35,1,1.29,6.56,6.39,12.16,10.8,16.51,0,.06-.02.12-.03.19Z"/>
  </g>
</svg>