<?xml version="1.0" encoding="UTF-8"?>
<svg id="Layer_2" xmlns="http://www.w3.org/2000/svg" viewBox="0 0 151.63 205.05">
  <defs>
    <style>
      .cls-1 {
        fill: #f47427;
      }
    </style>
  </defs>
  <g id="Layer_1-2" data-name="Layer_1">
    <path class="cls-1" d="M148,152.59c-7.88-16.1-26.1-22.64-40.62-14.57-1.06.59-2.06,1.26-3.02,1.96.43-4.02,1.16-16.05.77-23.28-.4-7.52-4.97-11.89-4.45-15.52.52-3.64,3.56-19.89,5.74-23.89,2.18-4,4.61-6.43,7.16-13.83s2.43-12.37,0-17.22c-2.43-4.85-8.98-8.85-16.86-14.19-7.88-5.34-21.11-14.07-28.75-16.5s-17.83-.24-20.26-.12c-2.43.12-3.32-1.42-3.32-1.42,0,0,1.05-3.72,0-6.07S38.1-1.44,30.9.26s-12.21,9.06-13.18,14.39c-.97,5.34,3.8,11.81,4.69,12.37,1.94-.81,3.15-1.54,3.15-1.54,0,0,1.54.65,2.51.32.97-.32,2.26,3.8,2.59,4.29.32.48,2.02-.69,2.02-.69,0,0,.73.81.97,1.17.24.36,1.82-.65,2.39-.85s.4.73.77,1.13.85-.65,1.01,0,.2,1.33,1.21,1.58c0,0-1.13,3.8-1.05,6.43.08,2.63-2.06,5.78-2.35,7.24-.28,1.46-3.74,6.37-5.5,8.37-1.76,2-5.88,9.34-7.82,12.61-1.94,3.27-2.91,4.79-5.76,7.7s-6.67,6.85-8.98,8.55c-.02.02-.05.04-.07.06l-5.88-1.75c-.67-.2-1.38.18-1.58.85-.2.67.18,1.38.85,1.58l4.53,1.35c-1.87,2.14-3.71,4.95-3.92,5.86-.3,1.27,1.33,1.61,4.29-2.53-1.98,3.64-3.03,5.21-1.7,5.3s2.3-2.55,2.95-3.44,1.33-1.58,1.33-1.58c-.2,3.96-.57,5.17.69,5.21,1.22.04,1.14-1.68,1.43-2.33,0,.29-.02.57-.02.84-.03,1.94,1.85,1.82,1.97.97s-.09-2.27.48-3.55c.29-.65.74-1.49,1.11-2.17.59.24,1.04.73,1.2,1.35l5.7,22.81c.6,2.4,2.45,4.34,4.83,5.04l.69.2c-.12.51-.21.89-.21.89l2.9,2.54h0l-2.14,15.3c-2.15.58-3.51,2.61-4.79,5.64-.24.08-.49.17-.73.28l-.23-.02v.13c-6.94,3.06-13.67,13.25-17.16,27.01-3.55,14.02-2.39,26.38,2.46,32.24l-.07.17.32.13c.46.52.95.98,1.47,1.39l-.12.37.33.11.08-.25c.51.36,1.04.67,1.61.92l-.04.17.33.08.03-.12c.36.14.73.28,1.11.37.72.18,1.45.27,2.18.27,8.29,0,17.18-11.4,21.38-27.97,3.17-12.5,2.59-23.67-1.01-30.11.58-5.71-.15-9.39-3.24-10.5-.04-.02-.08-.05-.11-.07l.11-.8,28.58,15.92c-.92.23-1.58.49-1.91,1.02-.81,1.28.82,3.77,6.55,4.27,1.45.12,2.99.2,4.54.24l-1.57.3h0s-2.33.42-2.33.42c-.94.17-1.64.99-1.55,1.84s.93,1.4,1.88,1.23l8.44-1.5,2.73,1.52c-.03,1.62.3,3.31,1.02,4.93l.54,1.06c2.25,3.91,6.36,5.79,9.91,4.63.51,1.21,2.06,1.73,4.51.64.56,3.3,1.55,6.58,3.09,9.72,7.88,16.1,26.1,22.64,40.62,14.57,14.51-8.07,19.91-27.73,12.02-43.83ZM145.08,171.62l-17.82-4.32c.14-.22.26-.45.36-.69l17.51.9c.08,1.38.07,2.75-.05,4.1ZM105.4,184.85l12.4-14.57c.27-.11.54-.25.78-.4l-10.44,17.71c-.96-.84-1.88-1.74-2.74-2.74ZM101.25,178.57c-.16-.33-.29-.65-.44-.98l13.55-7.53c.3.2.62.35.97.44l-12.75,10.49c-.47-.78-.92-1.58-1.33-2.42ZM98.57,170.23l11.04-.58-10.39,3.47c-.26-.96-.49-1.93-.65-2.89ZM142.1,155.86c.41.84.78,1.69,1.11,2.55l-15.24,5.1c-.03-.21-.06-.43-.12-.64-.02-.09-.06-.17-.09-.25l13.83-7.69c.17.32.36.61.52.94ZM98.39,168.92c-.04-.31-.07-.62-.1-.94l4.13.39-4.03.55ZM111.21,158.87l2.73.46,2.12,2.09c-.25.03-.51.09-.76.18-.06.02-.11.05-.17.08l-3.58-2.46-.35-.35ZM111.01,156.46l1.32,1.3-2.22-.37c.34-.32.63-.63.89-.93ZM111.87,155.3l2.78,2.17.56.78-2.08-.35-1.82-1.79c.22-.28.4-.55.56-.81ZM112.59,166.77l-11.77-1.1c.11-.1.21-.2.32-.3l11.43,1.08c0,.11,0,.21.02.32ZM104.5,162.26l5.92,1.44-6.79-.64c.29-.26.57-.53.86-.8ZM107.03,159.99l2.65,1.19,2.4,2.44-7.17-1.74c.69-.63,1.39-1.26,2.12-1.89ZM107.85,159.31l.95.97-1.38-.62c.14-.12.28-.24.42-.35ZM116.69,161.39l-1.96-1.93,1.55.26,1.35,1.89c-.3-.11-.62-.19-.94-.21ZM114.68,161.92c-.1.06-.19.12-.29.19l-1.17-1.19,1.45,1ZM128.03,163.98l15.33-5.12c.45,1.25.81,2.51,1.1,3.77l-16.42,2.24c.02-.29.02-.59,0-.89ZM127.59,162.18c-.12-.29-.27-.57-.43-.82l12.19-10.03c.73.99,1.39,2.08,2.01,3.2l-13.77,7.66ZM126.89,160.99c-.19-.24-.4-.46-.63-.65l10.36-12.17c.86.87,1.68,1.79,2.45,2.8l-12.18,10.02ZM123.87,159.44l6.15-16.14c1.07.54,2.1,1.2,3.11,1.91l-8.44,14.32c-.27-.06-.54-.09-.81-.09ZM123.35,159.51c-.11.02-.21.02-.32.05l-.38-.06,3.56-17.71c1.15.35,2.28.79,3.38,1.32l-6.24,16.4ZM122.2,159.42l-.63-.11.64-18.35c1.2.13,2.39.34,3.56.68l-3.57,17.78ZM120.37,162.18c-.03.08-.05.17-.08.25h-.03s-.23-.78-.23-.78l.31.24.04.29ZM118.69,157.19l-4.64-15.52c1.18-.36,2.39-.58,3.6-.71l2.2,17.13-1.15-.9ZM118.07,156.7l-2.07-1.61-5.79-11.82c1.11-.6,2.25-1.07,3.41-1.45l4.45,14.88ZM119.4,161.16l.39,1.31-.18.02-.92-1.87.7.55ZM119.12,162.52h-.05c-.17-.17-.35-.32-.54-.46l-1.61-2.24.96.16,1.24,2.53ZM88.82,135.62l.55-2.75.36-4.16c.25.92.5,1.91.75,2.96l-1.22,4.05-.43-.09h0ZM89.78,155.25l1.86.31c-.04.6-.11,1.24-.2,1.92-.48-.83-1.02-1.6-1.65-2.23ZM89.47,153.9c.1-1.16-.2-2.62-.56-4.16l2.25-7.44,1.75,1.79c.32,2.14.48,3.76.39,4.37-.33,2.21-2.46,1.61-1.76,4.88.06.27.09.59.11.93l-2.17-.37ZM104.44,168.56l.78.07-2.12.11,1.34-.18ZM111.33,169.56l2.33-.12c.1.12.2.22.31.32l-13.34,7.42c-.51-1.19-.93-2.39-1.28-3.6l11.98-4.01ZM115.92,170.61c.34.03.69,0,1.05-.07l-11.87,13.94c-.81-.97-1.57-2-2.27-3.11l13.09-10.77ZM119.56,169.13h.13s-8.02,21.06-8.02,21.06c-1.1-.67-2.15-1.44-3.17-2.29l11.06-18.76ZM120.19,169.09h.07s-4.63,23.05-4.63,23.05c-1.22-.47-2.4-1.06-3.55-1.73l8.12-21.32ZM120.73,169.07h.04s-.85,24.26-.85,24.26c-1.3-.22-2.59-.58-3.86-1.04l4.67-23.23ZM126.1,168.54l18.09,8.11c-.38,1.37-.83,2.71-1.41,3.98l-17.21-11.8c.18-.09.37-.17.53-.29ZM126.49,168.21c.17-.15.32-.32.47-.51l18.07,4.38c-.14,1.4-.37,2.78-.71,4.12l-17.83-7.99ZM127.77,166.16c.08-.27.15-.54.2-.82l16.6-2.27c.27,1.33.45,2.66.54,3.98l-17.33-.89ZM136.3,147.84l-10.4,12.22c-.24-.16-.51-.29-.77-.39l8.36-14.2c.98.71,1.91,1.5,2.81,2.37ZM121.75,140.91l-.63,18.16-.75-.58-2.26-17.58c1.21-.1,2.43-.11,3.64,0ZM109.8,143.49l5.36,10.96-2.8-2.18c-.36-1.31-1.43-2.52-2.66-3.81-1.03-1.07-2.07-1.96-2.97-2.83.95-.8,1.97-1.52,3.07-2.14ZM66.95,90.62c.24-1.64.79-3.03.79-3.03l-.48-.55s3.4-8.55,4.97-15.22-.79-15.77-.79-15.77c0,0,6.61,4.06,8.13,4.24.79,2.18-.3,4.49.61,5.03s1.39,2.12,1.39,3.7,1.08,15.55,1.8,19.67c-.33,2.53-.73,4.9-1.2,6.41-1.45,4.69-2.59,7.6-2.75,12.61-.12,3.77.76,6.9.59,11.59-.78-.03-1.45.08-2.04.44-.95.58-.17,2.19,1.63,3.72-.05.35-.11.7-.18,1.07-.59,3.22-1.08,6.21-1.51,8.73l-45.3-9.75.42-2.98c.3-.32.65-.64.86-.81.05-.04.11-.11.16-.19.24.02.47.05.71.05,2.33,0,4.53-1.15,5.86-3.19l11.23-17.14c.27-.42.69-.69,1.15-.82-.13.46-.21.86-.2,1.15.06,1.58,3.15.99,3.15.99,1.03,1.25,2.61.64,2.85.52.79,1.46,2.91,0,2.91,0,.42,1.46,2.12,1.44,2.79-.52,0-.03.02-.05.02-.08l4.68.93c.69.14,1.35-.31,1.49-.99.14-.69-.31-1.35-.99-1.49l-4.51-.9c.18-.7.4-1.38.86-2.23.94-1.76.64-3.58.88-5.22ZM18,86.02c-.08-1.42.12-3.72,1.33-4.73,1.21-1.01,3.88-4.57,4.29-4.73.4-.16-.04-.61-.04-.61,0,0,7.2-4.73,11.79-9.1,4.59-4.37,7.87-12.37,9.5-14.8,1.64-2.43,5.64-7.64,5.64-7.64,0,0,6.55,7.04,8.13,10.67,1.58,3.64,2.67,5.58,2.55,9.58s.73,8.49.97,11.77c.24,3.27-1.21,10.43-1.21,10.43l-.85.55s-2.12,3.33-3.52,4.55c-.73.64-1.74,2.27-2.54,3.91-1.69-.2-3.35.56-4.3,2.01l-2.33,3.55-28.51-7.88-1.17-4.68c.36.07.68.05.96-.18.97-.81-.61-1.26-.69-2.67ZM26.5,114.81c-1.52-.45-2.71-1.69-3.09-3.23l-4.15-16.62,27.43,7.58-8.18,12.48c-.9,1.37-2.42,2.1-3.99,2.02-.22-.68-.82-1.07-.82-1.07,0,0-6.31-1.62-6.43-1.5-.03.03-.09.22-.17.51l-.6-.18ZM31.81,143.87c-1.2-1.15-2.58-1.96-4.15-2.36-.49-.13-.99-.2-1.5-.24l.04-.16-.33-.08-.06.23c-.18,0-.36,0-.54,0,.36-.7.7-1.25,1.04-1.65h.52c.6-.61,1.35-1.01,1.95-1.05.15.02.31.05.47.08.49.22.71.84.8,1.38.05.29.06.58.08.88h1.39c.2.77.29,1.77.27,2.99ZM32.07,164.25l-1.5.9c.36-1.4.75-3.07,1.19-4.99l.36-.34c.06,1.39.04,2.88-.04,4.43ZM10.07,166.77l4.96,3.81s-.03.1-.05.15c-.1.39-.16.77-.21,1.14l-5.8-1.25c.01-.05.02-.1.04-.16.32-1.27.68-2.49,1.06-3.68ZM20.29,148.82c-.52,2.44-1.04,5.18-1.51,7.83l.18-6.54c.45-.48.89-.91,1.33-1.3ZM25.48,146.3c.32,0,.63.04.93.11,0,0,0,0,0,0l-6.75,21.12s0-.01-.01-.02l5.24-21.15c.2-.03.39-.07.58-.07ZM29.72,157.63l-9.69,12.47s0-.04,0-.06l10.75-17.64c-.15.83-.32,1.68-.5,2.6-.19.93-.38,1.79-.56,2.63ZM20.39,170.19l9.16-11.78c-.35,1.6-.68,3.02-.99,4.29l-7.97,7.53c-.07-.02-.13-.03-.2-.05ZM20.03,169.39h0s9.75-19.87,9.75-19.87c.36.66.69,1.42.98,2.27l-10.73,17.61ZM19.98,168.68l8.39-21.07c.43.42.83.93,1.19,1.54l-9.59,19.53ZM19.85,168.09h0s6.89-21.54,6.89-21.54c.48.17.94.43,1.38.8l-8.26,20.74ZM20.01,164.64c.77-4.81,2.12-12.82,3.33-17.84.41-.17.81-.31,1.2-.39l-4.52,18.23ZM18.37,159c-.25,1.45-.48,2.82-.67,4.05l-.7-10.55c.53-.72,1.07-1.38,1.61-1.98l-.23,8.48ZM16.48,167.56l-3.2-8.89c.5-1.01,1.01-1.96,1.54-2.86l2.11,11.27c-.15.14-.3.3-.45.48ZM16.24,167.9c-.17.25-.34.52-.49.82l-4.11-6.33c.46-1.15.95-2.23,1.45-3.28l3.16,8.78ZM15.57,169.08c-.16.36-.3.74-.43,1.14l-4.95-3.8c.4-1.26.83-2.48,1.29-3.64l4.1,6.3ZM14.74,172.2c-.04.4-.05.79-.04,1.16l-6.63,1.47c.23-1.27.5-2.57.83-3.89l5.84,1.26ZM8,175.2l6.72-1.49c.03.3.08.57.15.83l-7.43,4.45c.14-1.22.33-2.49.56-3.79ZM7.41,179.41l7.57-4.53c.06.17.14.32.22.46l-8.03,7.59c.04-1.14.12-2.31.24-3.52ZM7.14,183.43l8.24-7.79c.06.07.12.14.18.19l-8.4,10.8c-.05-1.02-.05-2.09-.02-3.2ZM15.85,176.04s.07.03.1.05l-8.47,13.9c-.12-.9-.22-1.84-.27-2.83l8.65-11.12ZM16.29,176.18h.01l-8.24,16.79c-.2-.77-.37-1.57-.51-2.44l8.75-14.35ZM18.94,174.27l7.73,11.89h0c-.66,1.44-1.35,2.78-2.06,4.01l-5.72-15.92h.05ZM24.4,175.36c0,.97.18,1.8.51,2.37l-4-3.07,3.48.7ZM26.81,169.29c-.47.38-.92.96-1.3,1.68l-.76.17c-.83-.17-1.72-.37-2.58-.55l5.17-3.09c-.2.73-.38,1.33-.52,1.8ZM21.67,170.47c-.23-.05-.45-.1-.67-.15l7.41-7.01c-.36,1.46-.68,2.68-.95,3.69l-5.79,3.47ZM32.09,159.37l-.19.18c.05-.23.1-.47.15-.71.01.18.03.35.04.53ZM16.68,152.93l.77,11.64c-.11.7-.21,1.33-.29,1.86l-2.07-11.06c.52-.87,1.05-1.69,1.58-2.44ZM8.2,193.48l8.16-16.62-7.45,18.71c-.27-.63-.5-1.34-.71-2.09ZM9.1,195.99l7.39-18.55-6.46,20.2c-.34-.48-.65-1.03-.93-1.65ZM10.28,198.01l6.47-20.23-5.3,21.36c-.41-.31-.8-.67-1.17-1.14ZM17.09,177.82l-3.94,22.08c-.1-.02-.2-.01-.3-.03-.39-.1-.75-.28-1.11-.51l5.34-21.54ZM13.5,199.94l3.98-22.32-2.36,22.14c-.57.16-1.11.22-1.63.18ZM17.88,177.14l-.58,21.6c-.62.4-1.22.69-1.81.89l2.39-22.5ZM17.65,198.49l.6-22.04,1.36,20.42c-.66.64-1.31,1.17-1.96,1.61ZM18.54,175.66l3.46,18.5c-.69.9-1.38,1.68-2.07,2.38l-1.39-20.88ZM22.27,193.77l-3.54-18.93,5.66,15.73c-.69,1.17-1.4,2.23-2.12,3.2ZM26.84,185.78l-7.42-11.42.74.15,8.42,6.47.21-.27-2.83-2.17c1.11.17,2.41-1.18,3.17-3.22l1.07.23.07-.34-1.03-.22c.08-.23.15-.46.22-.7.37-1.46.38-2.84.1-3.86l1.9-.42-.07-.34-1.93.43c-.04-.11-.09-.21-.14-.31.28-.95.67-2.33,1.14-4.16l1.6-.96c-.21,3.43-.79,7.19-1.8,11.17-.93,3.68-2.11,7-3.42,9.95ZM31.52,131.36l.56-3.99,45.13,9.71c-.35,1.67-.67,2.86-1.02,3.36-.97,1.4-2.1.67-2.91,3.99-.81,3.32-4.35,4.02-8.28,5.57h0l-33.48-18.65ZM120.38,193.39l.85-24.35h.02s3.15,24.57,3.15,24.57c-1.34.06-2.69-.03-4.03-.22ZM133.35,191.07c-2.82,1.57-5.84,2.39-8.88,2.54l.39-.05-3.15-24.54h.03s7.06,23.61,7.06,23.61l.44-.13-7.03-23.51h.06s10.7,21.84,10.7,21.84l.41-.2-10.61-21.67h.12s13.88,19.32,13.88,19.32l.37-.27-13.56-18.89c.11.02.23.03.34.04l16.17,15.9.2-.2c-1.84,2.53-4.17,4.66-6.96,6.21ZM140.42,184.71l-15.84-15.57c.16-.02.32-.06.47-.11l17.51,12.01c-.61,1.29-1.32,2.52-2.14,3.66Z"/>
  </g>
</svg>