<?xml version="1.0" encoding="UTF-8"?>
<svg id="Layer_2" xmlns="http://www.w3.org/2000/svg" viewBox="0 0 216.73 181.53">
  <defs>
    <style>
      .cls-1 {
        fill: #f47427;
      }
    </style>
  </defs>
  <g id="Layer_1-2" data-name="Layer_1">
    <path class="cls-1" d="M211.19,119.69c-7.08,3.48-9.01,5.88-9.01,5.88,0,0-9.49,1.55-15.43,5.15-4.53-1.82-6.59-3.48-6.59-3.48l1.13-2.26s-37.2-25.21-41.39-26.75c-4.19-1.55-11.74-2.41-18.64-1.84-18.33-3.51-30.39-4.25-30.39-4.25,0,0-1.38-1.1-1.95-2.36-.58-1.25-3.72-7.62-3.72-7.62,0,0,11.34,3.9,16.82,3.55,5.48-.35,14.56.03,17.28.3,5.89,3.37,9.77,3.32,9.77,3.32,0,0,4.79,1.92,5.98,3.32,1.19,1.41,1.5-.04.92-1.29,1.76,1.69,2.53.79,2.22-.37.69-3.46.66-6.81-1.39-8.91-2.05-2.1-5.46-2.91-11.95-1.67-4.46-1.2-26.14-7.52-34.3-8.75-4.71-6.95-12.74-17.8-12.74-17.8,0,0-5-8.98-7.51-10.65-2.5-1.67-8.04-2.38-8.77-4.43,5.98.73,7.45-1.26,7.81-4.24,1.56-1.8,1.31-2.23.58-2.98.84-.88.08-2.42.08-2.42l.24-1.25s1.37-.68,1.77-.98c.41-.3-1.23-3.5-1.82-5.02-.59-1.52,1.39-5.95,1.21-7.5,1.27-1.13,1.91-4.46-2.86-8.23-4.77-3.77-6.58-5.11-9.79-5.48-3.21-.37-4.93-1.52-9.94.56-3.3-.11-9.94,5.98-8.28,14.55,1.66,8.57,4.34,12.98,4.34,12.98,0,0-1.82,1.7-1.99,4.39-11.59,9.24-14.35,12.46-18.92,29.65-2.04,2.89-5.37,13.33-9.08,18.94-3.71,5.61-8.98,26.7-8.98,26.7l.37.1c-.35.72-.8,1.37-1.2,1.82-.77.86-1.68,2.98-2.07,4.53-.39,1.55-1.14,3.37-2.46,5.75-1.32,2.37.05,2.84,1.07,1.63s2.85-4.11,2.85-3.34c0,.77-4.98,6.58-3.83,7.51.85.69,2.61-1.26,3.47-2.33-.92,1.23-2.69,3.86-1.6,4.47,1.44.8,4.28-3.74,4.28-3.74,0,0-2.39,4.15-1.35,4.69,1.04.54,2.57-2.18,3.77-4.14,1.19-1.96,3.27-7.55,3.27-7.55.3,1.7,1.34,2.62,2.68,1.58-.48-.85-1.27-6.23-1.7-8.96l1.02.27s3.7-10,7.02-15.36c3.32-5.35,4.68-9.48,5.84-12.61,1.16-3.14,8.11-10.16,8.11-10.16,0,0,13,30.16,26.92,47.19,1.5-.04,1.17-.76,1.17-.76,0,0,4.78,10.39,24.85,6.37,17.82.05,27-.27,27-.27,0,0-8.92,5.62-15.97,19.07-2.03,2.67-3.02,3.34-3.02,3.34,0,0-1.1-1.45-4.71,1.08-3.61,2.53-6.35,2.7-7.55,4.34-4.16.39-2.4,6.1,1.54,9.49,3.95,3.39,9.34,5.68,9.34,5.68,0,0,8.8,14.41,19.15,13.33,3.42-2.01,2.41-3.71-.98-7.8-3.4-4.08-6.44-10.71-5.82-13.6.62-2.89-1.02-4.09-1.02-4.09l3.59-4.47,1.89,1.74s23.47-21.65,27.37-27.78c13.77,5.39,33.32,14.41,34.96,15.61,1.01-1.11,1.13-2.26,1.13-2.26l4.06,2.69s1.89,4.12,4.73,6.51c-.1,3.08,2.21,5.28,2.21,5.28,0,0,.75,4,3.96,2.95,3.21-1.04,7.6-5.66,9.21-9.23,1.62-3.56,2.53-4.42,5.65-5.64,3.13-1.22,7.6-8.49,9.93-12.38,2.33-3.89,3.24-12.77-3.85-9.3Z"/>
  </g>
</svg>