<?xml version="1.0" encoding="UTF-8"?>
<svg id="Layer_2" xmlns="http://www.w3.org/2000/svg" viewBox="0 0 133.9 244.57">
  <defs>
    <style>
      .cls-1 {
        fill: #f47427;
      }
    </style>
  </defs>
  <g id="Layer_1-2" data-name="Layer_1">
    <path class="cls-1" d="M107.95,136.47c-6.09,0-11.68,2.58-16.11,6.89-.74-.67-1.26-1-1.66-1.18-.8-.37-1.65-.52-2.46-.48l-8.56-13.81,3.89-6.17-.7-1.35c0-.18.02-.36,0-.54l-1.09-11.9c.96-.04,2.09-.39,3.32-.87,0,0,.45.56,1.78,0,.79-.33,1.42-1.75,1.59-3.46h2.01c.81,0,1.47-.66,1.47-1.47s-.66-1.47-1.47-1.47h-2.18c-.06-.25-.12-.49-.2-.73-1-2.89-5.68-5.12-8.12-8.12-2.45-3.01-4.45-6.68-5.9-11.13-1.45-4.45-6.9-14.36-6.9-16.58s-2.34-6.79-1.67-14.91-.78-11.69-5.45-18.25c.67-1.67,4.01-4.34,6.01-9.24,0,0,3.12-.67,2.67-2.23-.45-1.56,1.56-5.9.67-11.02-.89-5.12-8.01-10.13-15.58-7.9-7.57,2.23-8.01,10.68-8.01,10.68-.22,1.53-.95,6.01-.95,6.01,0,0-.84-.95-1.11,1s1.39,4.9,1.39,4.9c0,0-6.46,1.37-10.91,2.56-4.45,1.19-8.01,3.86-9.2,9.5s-2.67,15.43-4.3,22.85c-1.63,7.42-4.15,16.62-5.64,19.14-1.48,2.52-2.08,5.34-.3,6.08-1.63,15.29,5.08,26.01,8.31,31.57,3.23,5.57,7.57,16.36,6.46,20.14s-2.78,6.45-6.46,13.8c-3.67,7.35-4.23,24.26-4.9,26.93-.67,2.67-1.56,5.79-3.12,8.35-.08.13-.16.26-.23.39-8.51,5.21-14.37,15.98-14.37,28.39,0,17.5,11.64,31.73,25.94,31.73s25.94-14.23,25.94-31.73c0-3.95-.6-7.73-1.68-11.23l2.09-1.13c.14.01.28.03.42.03,3.72,0,6.76-3.87,7.05-8.8l6.35-.31c-.06.18-.09.36-.07.56.06.82.78,1.45,1.6,1.4l11.7-.8c.82-.06,1.45-.78,1.4-1.6-.04-.51-.34-.93-.76-1.17,3.48-.85,5.79-2.25,5.85-3.83.11-2.56-3.23-2.78-6.9-3.12-3.67-.33-10.46-2.23-10.91-4.9-.1-.61-.42-2.99-.85-6.36l17.1-28.85.39.63c-.43.7-.72,1.76-.3,3.32.38,1.44,1.03,2.71,1.92,4.13-2.69,5-4.26,10.97-4.26,17.39,0,17.5,11.64,31.73,25.94,31.73s25.94-14.23,25.94-31.73c0-17.5-11.64-31.73-25.94-31.73ZM78.83,106.72l1.16,12.7h-3.76s-.25.6-.59,1.47l-13.75-13.83,16.82-.57c.04.08.08.15.12.22ZM51.32,72.88c0-6.23,3.78-15.58,3.78-15.58,0,0,3.45,11.91,3.9,14.69.45,2.78,4.34,10.13,9.13,16.14,4.79,6.01,5.79,6.34,8.12,9.35-.35,2.77.65,4.73,1.53,6.72l-18.13.61-1.41-1.42c-.6-.61-1.3-1.11-2.04-1.49-2.11-6.67-4.49-13.22-6.43-16.55,2-.67,1.56-6.23,1.56-12.46ZM41.81,151.54c-1.63-.07-2.97,1.71-5.57,3.86-.34.28-.74.63-1.19,1.03,3.86-6.95,9.39-14.47,10.71-16.66,1.67-2.78,1.45-8.79,1.45-8.79l1.89,5.34c1.89,5.34,1.45,7.79,2.78,16.14.26,1.6.59,3.3.96,5.03l-13.73,13.05-4.49-5.2c1.43-1.72,3.03-3.58,4.36-5.04,3.34-3.64,4.45-8.68,2.82-8.76ZM36.18,209.2l8.8-4.76c.24.91.43,1.84.6,2.79l-9.4,1.97ZM45.65,207.65c.19,1.21.32,2.45.38,3.71h-13.15c.05-.14.09-.28.12-.43l1.88-1.02,10.77-2.26ZM39.23,206.23l.6-.45,1.15-.5-1.75.95ZM41.28,204.69l3.07-2.31c.1.28.19.57.28.85l-3.35,1.45ZM32.81,208.14c-.03-.1-.07-.18-.11-.28l10.65-8.01c.04.09.08.19.12.28l-10.67,8.01ZM33.35,204.47l8.11-8.1c.29.45.57.91.83,1.38l-8.94,6.72ZM32.01,205.21l.92-3.19,4.85-6.88c.57-.07,1.1-.17,1.57-.29h1.06c.28.37.55.77.81,1.16l-9.21,9.2ZM28.89,205s-.1,0-.14.01c-.22.04-.44.11-.64.2l.86-2.8,1.92-1.67-.11.39-1.88,3.87ZM30.08,203.52l-.43,1.5c-.09-.02-.19-.02-.28-.03l.72-1.48ZM28.36,202.93l-.79,2.58c-.22.16-.42.37-.61.59l.33-2.25,1.07-.93ZM27.56,202.09l.14-.97,1.62-3.84.72.17-1.04,3.39-1.44,1.26ZM29.61,200.31l.86-2.82c.7.02,1.36-.42,1.52-1.13.13-.56-.09-1.12-.5-1.47.36.05.7.1,1.04.14l-1.05,3.65-1.87,1.63ZM35.41,195.25l-.7.61.18-.63c.17,0,.35.02.52.02ZM35.23,183.22l2.26-5.37-1.64,5.67c-.21-.1-.41-.2-.62-.3ZM37.19,195.24l-3.9,5.54.82-2.86,3.08-2.68ZM29.16,170.8c.47-.14.97-.34,1.51-.63,0,0,.68-.85,1.7-2.1l4.51,5.23-3.81,9.05c-1.65-.58-3.36-.96-5.13-1.13-.57-1.02-.89-1.86-.89-2.27,0-.74.78-3.97,2.1-8.15ZM26.15,196.55l.87.2-.87,2.06v-2.26ZM26.15,204.85l.65-.57-.4,2.7c-.09.2-.16.4-.23.62h-.03s0-2.74,0-2.74h0ZM25.73,196.45v3.36l-.97,2.32-.91-6.11,1.88.43ZM25.73,205.81v2.01l-.12.06-.19-1.32.32-.76ZM25.21,208.08h-.02s-.1-.1-.14-.15l-.09-.29.14-.33.11.77ZM23.41,195.91l1.03,6.97-.54,1.29-2.68-8.76,2.19.51ZM19.71,191.93v.05s-.27-.07-.27-.07c-.81-.19-1.62.32-1.8,1.13-.19.8.32,1.62,1.13,1.8l1.98.46,2.9,9.48-.35.84-7.32-15.09c.97.42,2.26.9,3.75,1.4ZM15.56,190.65l7.47,15.39-.45.39-9.51-13.49c.78-.84,1.62-1.61,2.49-2.29ZM12.77,193.26l9.48,13.45-.27.23c-.1.03-.18.08-.27.11l-11.06-11.05c.65-.98,1.36-1.9,2.12-2.74ZM10.41,196.36l10.89,10.87c-.22.13-.42.29-.61.47l-11.99-8.24c.51-1.09,1.08-2.13,1.71-3.11ZM8.53,199.86l11.88,8.16c-.18.22-.33.45-.46.72l-12.69-5.5c.36-1.17.79-2.3,1.28-3.38ZM7.12,203.65l12.66,5.48c-.11.28-.19.57-.25.88l-13.25-2.78c.21-1.23.49-2.42.83-3.58ZM6.22,207.64l13.25,2.78c-.03.3-.04.61-.02.93H5.84c.06-1.26.18-2.5.37-3.71ZM5.81,212.84c0-.36.01-.71.02-1.06h13.66c.01.09.01.18.03.27.04.21.1.41.15.62l-13.75,2.89c-.07-.89-.11-1.8-.11-2.71ZM5.96,215.98l13.82-2.9c.1.27.21.54.34.78l-13.59,5.89c-.26-1.22-.46-2.48-.58-3.77ZM6.63,220.16l13.72-5.95c.14.22.3.42.47.61l-13.11,9.01c-.43-1.18-.79-2.41-1.08-3.67ZM7.87,224.24l13.24-9.1c.17.16.35.29.54.41l-12.17,12.16c-.6-1.1-1.14-2.26-1.6-3.47ZM9.68,228.1l12.35-12.34c.18.09.36.16.54.21l-10.78,15.29c-.77-.98-1.47-2.04-2.11-3.16ZM12.07,231.6l10.95-15.53c.17.02.33,0,.5,0l-8.85,18.24c-.92-.81-1.79-1.72-2.6-2.71ZM15.01,234.59l9.02-18.6c.13-.03.25-.07.37-.12l-6.36,20.81c-1.06-.59-2.07-1.29-3.03-2.09ZM25.94,238.76c-2.75,0-5.37-.71-7.76-2l.25.08,6.5-21.27c.07-.05.15-.11.22-.17l-3.34,22.56.42.06,3.43-23.11.07-.04v23.53h.42v-23.76h.03s3.47,23.38,3.47,23.38l.42-.06-3.49-23.55h.01s6.86,22.43,6.86,22.43l.25-.08c-2.39,1.29-5.01,2.01-7.76,2.01ZM33.84,236.68l-6.88-22.49h.01s9.9,20.4,9.9,20.4c-.96.8-1.97,1.5-3.03,2.09ZM37.21,234.31l-9.86-20.33.03-.02,12.43,17.64c-.81.99-1.67,1.9-2.6,2.71ZM40.08,231.26l-12.34-17.5.06-.03,14.39,14.37c-.64,1.13-1.34,2.18-2.11,3.16ZM42.41,227.72l-14.21-14.19.12-.07,15.7,10.79c-.46,1.21-1,2.37-1.6,3.47ZM44.17,223.84l-14.83-10.19c.27.02.54.02.81-.02l15.1,6.54c-.29,1.27-.65,2.5-1.08,3.67ZM45.34,219.74l-14.51-6.29c.32-.11.61-.27.87-.46l14.22,2.98c-.12,1.29-.32,2.54-.58,3.77ZM45.96,215.56l-13.87-2.91c.24-.25.44-.54.6-.86h13.34c.01.35.04.7.04,1.06,0,.92-.04,1.82-.11,2.71ZM45.63,190.94c0,.47.03.93.08,1.39-.65-.94-1.35-1.84-2.09-2.68l2.5-2.17c-.31,1.08-.49,2.24-.49,3.47ZM42.83,188.79c-1.5-1.58-3.14-2.95-4.91-4.08l2.21-7.65,6.94,8.04-4.24,3.69ZM49.84,200.49c-.12-.36-.26-.71-.39-1.06.37.26.75.48,1.15.65l-.76.41ZM56.45,182.82c-1.09-.92-2.37-1.45-3.74-1.45-1.19,0-2.31.4-3.3,1.1l-8.02-9.3,12.36-11.75c1.47,5.98,3.21,11.55,4.02,13.4.71,1.62,1.08,2.71,1.15,3.8l-2.48,4.19ZM63.12,132.76c.22-5.79-1.11-10.24-3.56-19.36-.62-2.3-1.35-4.87-2.14-7.53l17.07,17.16c.08.08.18.15.27.22-.62,1.75-1.15,3.55-.98,4.11.29.93,1.79,1.98,2.44,2.4l2.15,3.47-14.15,13.45c-.69-6.49-1.17-11.96-1.1-13.92ZM66.45,165.95c-.57-4.57-1.2-9.87-1.76-14.91l15.55-14.78,1.95,3.14-15.74,26.55ZM128.07,167.75h-16.36c-.04-.18-.09-.36-.15-.54l16.22-3.4c.17,1.29.27,2.6.29,3.94ZM127.73,163.39l-16.33,3.43s-.02-.05-.03-.08c-.07-.13-.16-.23-.24-.35l15.79-6.84c.34,1.24.61,2.52.81,3.84ZM126.81,159.13l-15.92,6.89c-.1-.11-.2-.2-.31-.3l14.9-10.24c.51,1.16.96,2.38,1.32,3.64ZM125.31,155.1l-15.04,10.34c-.1-.07-.2-.11-.3-.17l13.53-13.52c.67,1.05,1.28,2.17,1.82,3.35ZM123.25,151.39l-13.68,13.67c-.09-.03-.18-.04-.26-.06l11.66-16.54c.82.9,1.58,1.88,2.28,2.93ZM120.68,148.14l-11.82,16.77s0,0,0,0c-.04-.03-.08-.08-.12-.11l9.24-19.05c.95.71,1.86,1.51,2.7,2.4ZM117.63,145.48l-9.22,19.01s-.09-.08-.13-.12l6.31-20.63c1.06.48,2.07,1.06,3.04,1.74ZM114.2,143.57l-6.26,20.47c-.05-.05-.1-.1-.16-.16l3.16-21.3c1.12.22,2.21.55,3.26,1ZM107.17,142.32c.26-.01.51-.04.77-.04.87,0,1.73.08,2.57.22l-3.11,20.98c-.08-.09-.16-.16-.24-.26v-20.9ZM103.06,143.06l2.75,18.56c-.3-.37-.6-.76-.93-1.19l-4.9-16.03c.99-.55,2.02-1.01,3.08-1.35ZM99.61,144.63l4.52,14.78c-.32-.45-.66-.92-1-1.43-.93-1.36-1.78-2.59-2.58-3.73l-3.71-7.64c.88-.75,1.8-1.41,2.77-1.98ZM96.52,146.91l2.56,5.27c-1.3-1.81-2.43-3.3-3.39-4.51.27-.27.55-.51.83-.76ZM101.2,159.28c1.38,2.03,2.6,3.61,3.67,4.85l.77,1.59-11.05-15.68c1.68,2.18,3.84,5.16,6.61,9.24ZM93.86,149.74l11.52,16.34-13.47-13.45c.6-1.02,1.24-1.99,1.95-2.89ZM91.69,153.01l13.49,13.47-10.34-7.11c-.31-.48-.59-.9-.8-1.23-1.06-1.64-2.02-3.05-2.86-4.25.16-.31.34-.58.51-.88ZM99.85,166.25c-.47-.55-.95-1.14-1.42-1.76l6.54,2.83-5.11-1.07ZM104.93,167.75h-.92c-.27-.17-.54-.3-.82-.37l1.74.37ZM103.02,167.35c-.4-.06-.8-.02-1.16.16-.12.06-.21.15-.31.24h-.27c-.31-.29-.63-.61-.95-.97l2.7.57ZM97.91,163.81c-.89-1.2-1.74-2.43-2.45-3.5l9.59,6.59-7.14-3.09ZM96.67,166.02c.49.63.96,1.22,1.4,1.73h-10.25c.02-1.2.1-2.38.24-3.54l8.61,1.81ZM88.12,163.79c.16-1.19.38-2.35.66-3.48l5.49,2.38c.71,1.04,1.38,1.98,2.01,2.81l-8.16-1.71ZM92.08,159.39c.61.95,1.19,1.82,1.74,2.64l-4.94-2.14c.3-1.15.67-2.28,1.09-3.35l.39.27c.54.79,1.1,1.63,1.71,2.58ZM86.59,146.09c-.15-.58-.24-1.35.23-1.74.5-.42,1.53-.45,2.39-.05.23.1.56.33,1.03.75-.95,1.08-1.82,2.25-2.63,3.49-.46-.83-.8-1.61-1.02-2.45ZM87.82,168.2s0-.02,0-.03h10.64c.38.42.75.8,1.1,1.13l-11.55,2.42c-.12-1.15-.19-2.33-.19-3.52ZM88.05,172.14l11.88-2.49c.31.28.62.52.91.73l-12.17,5.27c-.27-1.14-.48-2.31-.62-3.51ZM88.77,176.07l12.22-5.3c.05.16.12.33.2.49.05.1.12.19.17.28l-11.54,7.93c-.41-1.09-.76-2.23-1.06-3.41ZM89.99,179.88l11.62-7.99c.17.21.35.4.55.56l-10.67,10.65c-.56-1.02-1.06-2.1-1.51-3.23ZM91.71,183.49l10.81-10.79c.21.13.42.23.64.29l-9.49,13.45c-.71-.92-1.37-1.91-1.96-2.96ZM93.94,186.79l9.67-13.71c.22.02.44,0,.66-.05l-7.92,16.33c-.85-.78-1.65-1.63-2.4-2.57ZM96.67,189.66l8.22-16.95c.49-.38.77-.98.82-1.68l.03-.05.1-.04-6.35,20.76c-.98-.59-1.92-1.27-2.81-2.05ZM99.86,191.93l6.47-21.17h0s-3.34,22.56-3.34,22.56c-1.08-.35-2.13-.83-3.14-1.4ZM105.89,165.26s.03.03.04.04l.04.12-.08-.16ZM106.75,194.07c-1.15-.09-2.26-.3-3.35-.63l3.35-22.62v23.25ZM106.75,162.75c-.14-.16-.28-.32-.42-.49l-2.86-19.31c1.07-.31,2.16-.52,3.28-.6v20.4ZM107.95,194.12c-.26,0-.52-.01-.77-.02v-23.27l3.42,23.06c-.87.15-1.75.23-2.64.23ZM111.01,193.82l-3.42-23.11,6.75,22.06c-1.07.46-2.18.82-3.32,1.04ZM114.72,192.61l-6.76-22.11,9.84,20.29c-.98.71-2.01,1.32-3.08,1.82ZM118.15,190.53l-9.86-20.33,12.59,17.85c-.85.92-1.76,1.75-2.72,2.48ZM121.16,187.73l-12.15-17.24c.1.04.19.07.29.1l14.15,14.13c-.7,1.08-1.46,2.09-2.29,3.01ZM123.68,184.35l-13.7-13.68c.15,0,.29-.04.43-.09l15.07,10.35c-.53,1.2-1.13,2.34-1.8,3.42ZM125.65,180.54l-14.79-10.16c.14-.1.27-.21.38-.34l15.68,6.8c-.35,1.28-.78,2.52-1.28,3.7ZM127.04,176.42l-15.55-6.74c.09-.16.15-.33.2-.52l16.1,3.38c-.18,1.33-.43,2.62-.76,3.88ZM111.77,168.75c.02-.19.02-.38,0-.58h16.31s0,.02,0,.03c0,1.33-.08,2.64-.23,3.93l-16.09-3.38Z"/>
  </g>
</svg>