<?xml version="1.0" encoding="UTF-8"?>
<svg id="Layer_2" xmlns="http://www.w3.org/2000/svg" viewBox="0 0 254.39 117.26">
  <defs>
    <style>
      .cls-1 {
        fill: #f47427;
      }
    </style>
  </defs>
  <g id="Layer_1-2" data-name="Layer_1">
    <path class="cls-1" d="M247.27,101.06c-1.93-5.47-6.93-10.82-6.93-10.82l-.83-5.64s3.55-3.83,3.79-10.74c.23-6.91-11.28-44.41-11.28-44.41,0,0-5.22-7.69-9.97-9.73-4.76-2.04-33.31-7.86-48.49-5.32-9.33-8.89-13.46-13.17-19.88-14.41-14.97,9.71-32.49,18.04-39.77,23.3-5.63,4.06-20.51,14.82-22.4,23.51-6.9.01-6.68,5.92-6.68,5.92,0,0-.34,1.61.71,2.41-.32,1.21-.26,2.97-.26,2.97,0,0-1.84.25-1.89,1.27-.05,1.02,1.69,3.08,1.69,3.08,0,0-10.52,2.89-17.54,7.59-22.12,1.48-29.07,5.62-34.59,6.38-5.51.76-8.99-.68-11.2-.5-2.21.18-3.83,3.84-7.23,4.34-3.4.5-5.94,1.7-4.04,3.2-3.12,3.07-6.26,5.41-8.94,5.42-2.68,0-1.57,2.55,1.29,2.44.14,1.2,1.25,1.43,2.99.81,1.73-.62,4.53-2.39,4.53-2.39,0,0-.68,1.6.34,1.56,1.01-.04,10.59-5.85,13.85-7.54,15.37.9,34.25.13,38.06-.02,3.81-.14,9.6-3.57,9.6-3.57,0,0,7.39-.15,8.99.03.38,3.43,2.85,7.04,6.23,8.51-2.33.21,1.88,4,7.18,4.29-3.55.63,5.15,2.64,11.73.67-1.25,2.76,5.63-1.07,7.32-5.08,4.6,4.26,10.62-5.7,7.77-16.18,1.52-2.27,2.4-5.02,2.4-5.02,0,0,6.59,1.6,13.2-2.84,6.61-4.44,10.18-10.98,10.18-10.98,0,0,13.71.96,21.52-.81,4.99,4.99,13.31,19.83,19.91,25,3.06,9.37,8.8,14.45,8.8,14.45,0,0,.12,6.4,2.29,8.54,2.18,2.14,4.8,3.02,6.19,7.28,1.39,4.26,8.1,12.38,15.08,7.93,6.98-4.45,1.09-13.59,1.09-13.59,0,0,6.51,2.84,8.25,3.02,1.73.18,4.42-.29,5.48,1.76,1.07,2.05,3.1,3.7,8.76,6.82,5.66,3.11,9.92,1.72,9.83-.62-.09-2.34-6.2-10.86-7.12-12.3ZM224.63,88.61c-3.44.13-4.84,2.4-4.84,2.4,0,0-1.49-.44-4.04,3.85-1.96-6.33-8.66-7.56-8.66-7.56,0,0-.34-2.45-4.56-9.93-2.27-8.04-10.17-27.95-10.17-27.95l-.96-5.88s13.64,2.2,24.2,1.55c.88,10.31,11.08,39,11.08,39,0,0-1.69.8-2.05,4.51Z"/>
  </g>
</svg>